<svg id="Layer_1" data-name="Layer 1" xmlns="http://www.w3.org/2000/svg" viewBox="0 0 83.06 114.15"><defs><style>.cls-1{fill:#d9acd0;}.cls-2{fill:#fff;}.cls-3{fill:#af7a3b;}.cls-4{fill:#f0e6d0;}.cls-5{fill:#ffd594;}.cls-6{fill:#51342d;}.cls-7{fill:#8a5213;}.cls-8{fill:#bba094;}</style></defs><path class="cls-1" d="M48.15,91.12A6.88,6.88,0,0,1,48.5,87a10.81,10.81,0,0,1-3.41-5.12,38.12,38.12,0,0,1-1.44-5.17A34.79,34.79,0,0,1,37.39,76a49.76,49.76,0,0,1-5.16-1.43,32.62,32.62,0,0,0-5.17,10.64c-.12.38-.24.75-.35,1.11a11.21,11.21,0,0,1,3.36-2.11.52.52,0,0,1,.68.3.53.53,0,0,1-.3.67c-4.15,1.6-7.12,7-7.15,7a.51.51,0,0,1-.45.27h0a.5.5,0,0,1-.21,0,.54.54,0,0,1-.24-.28.5.5,0,0,1,0-.43s.07-.13.15-.27.2-.34.36-.58l-.23.07-.09,0c-.16,0-.32,0-.48.08a9.52,9.52,0,0,1-1.18.09,7.12,7.12,0,0,1-5.69-2.72,7.26,7.26,0,0,1-.9-7.61A37.61,37.61,0,0,1,16.39,77a23,23,0,0,0-4.08,3.82C8.08,85.92,6.7,92.13,8.2,99.28a.56.56,0,0,1-.07.38c-.42.7-1.44,2.88-.58,3.74s2.85-.63,3.5-1.2a.51.51,0,0,1,.41-.13,11.36,11.36,0,0,0,3.8-.72h.06a5.08,5.08,0,0,1,1.77-2.74,5.5,5.5,0,0,1,2.07-1,6.78,6.78,0,0,1,1.07-.2l.15,0H21c1,0,2,.06,3.14.11a54.78,54.78,0,0,0,15.63-1,78.42,78.42,0,0,0,9.43-2.67A6.18,6.18,0,0,1,48.15,91.12Z" transform="translate(-4.6 -5.06)"/><path class="cls-2" d="M32.47,51.51A13.75,13.75,0,0,1,19.63,43.2c-1.95,2.37-2.15,5.78-2.08,8.59.16,6.83,2.8,11.8,8,15.06a22.91,22.91,0,0,1,2.35-1.59l.26.46,5.39,3.46L50.79,66.1A13,13,0,0,0,52.93,59c.2-6.75-2.36-11.42-8.21-14.55A13.87,13.87,0,0,1,32.47,51.51Zm-9.81,6.24c-1.11.06-2.08-1.47-2.18-3.41s.7-3.56,1.8-3.62,2.08,1.47,2.18,3.41S23.76,57.69,22.66,57.75Zm16,4.67c-1.3.07-2.45-1.71-2.57-4s.84-4.15,2.14-4.22,2.45,1.71,2.57,4S40,62.35,38.68,62.42Z" transform="translate(-4.6 -5.06)"/><path class="cls-2" d="M46.1,69.82a14.28,14.28,0,0,0,.92-2L35,70l.56.54A19,19,0,0,0,46.1,69.82Z" transform="translate(-4.6 -5.06)"/><path class="cls-2" d="M34.2,69.59l13.25-2.36h0a.05.05,0,0,1,0,0h0a4.19,4.19,0,0,1,.53-.09l2.3-.41a6.85,6.85,0,0,0,.45-.61L33.56,69.18Z" transform="translate(-4.6 -5.06)"/><path class="cls-2" d="M34.86,69.89l.1.1L47,67.84c0-.17.09-.27.09-.27l0-.07a.56.56,0,0,1,0-.08.34.34,0,0,1,.08-.09l0,0,.13,0L34.2,69.59l.59.38Z" transform="translate(-4.6 -5.06)"/><path class="cls-2" d="M49.94,67.17c.14-.15.27-.3.4-.46l-2.3.41A6.92,6.92,0,0,1,49.94,67.17Z" transform="translate(-4.6 -5.06)"/><path class="cls-2" d="M28.17,65.72l.26.45a19.75,19.75,0,0,0-1.88,1.27,25,25,0,0,0,3.94,1.75l1.05.35,2-.36Z" transform="translate(-4.6 -5.06)"/><path class="cls-2" d="M33.87,70.18l.59.14.28-.29Z" transform="translate(-4.6 -5.06)"/><path class="cls-2" d="M33.56,69.18l-2,.36,1.12.33,1.54-.28Z" transform="translate(-4.6 -5.06)"/><path class="cls-2" d="M34.74,70l0-.06-.59-.38-1.54.28c.41.11.81.22,1.21.31Z" transform="translate(-4.6 -5.06)"/><path class="cls-2" d="M28.17,65.72l-.26-.46a22.91,22.91,0,0,0-2.35,1.59l.48.31a19.19,19.19,0,0,1,2.13-1.44Z" transform="translate(-4.6 -5.06)"/><path class="cls-2" d="M35.24,70.26l-.18.18.46.09L35,70l-.11,0Z" transform="translate(-4.6 -5.06)"/><path class="cls-2" d="M35,70l-.1-.1-.07.08.06,0Z" transform="translate(-4.6 -5.06)"/><path class="cls-2" d="M28.17,65.72h0A19.19,19.19,0,0,0,26,67.16l.51.28a19.75,19.75,0,0,1,1.88-1.27Z" transform="translate(-4.6 -5.06)"/><path class="cls-2" d="M35.24,70.26,34.85,70l-.11,0-.28.29c.2.05.4.08.6.12Z" transform="translate(-4.6 -5.06)"/><path class="cls-2" d="M34.79,70l0,.06.11,0Z" transform="translate(-4.6 -5.06)"/><path class="cls-3" d="M68.73,83.08h0c-.11.28-.23.56-.35.85a44,44,0,0,1,.72,11.66,6,6,0,0,0,3.51-1.51,7.2,7.2,0,0,0,1.79-6.23A5.68,5.68,0,0,0,68.73,83.08Z" transform="translate(-4.6 -5.06)"/><path class="cls-3" d="M63.92,90.9l-.46.51c-.15.16-.3.32-.46.47a20.47,20.47,0,0,1-1.75,1.62,3.81,3.81,0,0,1,2.38,2.28c.27,1-.1,2.07-1.14,3.28s-2.51.53-3.4.11a3,3,0,0,1-1.23,1.73,2.06,2.06,0,0,1-1.07.28,3.38,3.38,0,0,1-1.31-.3,2.67,2.67,0,0,1-1.6-1.69,4,4,0,0,1,.44-2.82,7,7,0,0,1-3-.73,6,6,0,0,1-1.41-1A78,78,0,0,1,40,97.48a55.43,55.43,0,0,1-15.91,1c-1.28-.06-2.49-.11-3.6-.11-3.37.31-4.05,2.71-4.17,3.44a.6.6,0,0,1-.06.11,12.15,12.15,0,0,0,.22,3.57c1.05,5.25,4.56,7.57,10.73,7.08,5-.4,11.17-8.13,12-9.19a4.19,4.19,0,0,0-1.07-3.13.53.53,0,0,1,0-.74.52.52,0,0,1,.74,0,5,5,0,0,1,1.41,3.57h1A12,12,0,0,1,46,97.86a.53.53,0,0,1,.71.22.51.51,0,0,1-.21.7,11.2,11.2,0,0,0-4.48,5c-.68,1.69-1.44,9.23,2.7,11.38a13.88,13.88,0,0,0,12.11,0c4-1.94,5.41-5,7.48-9.57.67-1.49,1.43-3.18,2.36-5a13.1,13.1,0,0,0,1.21-4c0-.17,0-.34.08-.52l.06-.53a40.78,40.78,0,0,0-.46-10.08A28.18,28.18,0,0,1,63.92,90.9ZM24.61,110.68a3.21,3.21,0,0,1-1.9.58,5.46,5.46,0,0,1-4.25-2.46c-1.62-2.29-1.49-5.18.29-6.43s4.54-.41,6.15,1.88S26.39,109.43,24.61,110.68ZM50,114.39a3.25,3.25,0,0,1-1.91.59,4,4,0,0,1-1.3-.22,5.82,5.82,0,0,1-2.94-2.25c-1.62-2.3-1.49-5.18.29-6.43a3.51,3.51,0,0,1,3.21-.37A5.87,5.87,0,0,1,50.29,108a5.93,5.93,0,0,1,1.14,3.53A3.56,3.56,0,0,1,50,114.39Z" transform="translate(-4.6 -5.06)"/><path class="cls-3" d="M22.37,90h0c.21,0,.39-.11.58-.17a3.56,3.56,0,0,0,.59-.28,3,3,0,0,0,.72-.54l.28-.35a5.75,5.75,0,0,0,.42-.69,9.85,9.85,0,0,0-.4-2.88,5.46,5.46,0,0,0-.35-.83,4.43,4.43,0,0,0-.4-.62,2.6,2.6,0,0,0-1.53-1,.53.53,0,0,1-.46-.58.53.53,0,0,1,.58-.46,3.39,3.39,0,0,1,1.7.86,3.61,3.61,0,0,1,.43.44,5.07,5.07,0,0,1,.41.56,7,7,0,0,1,.86,2.38c.09-.27.17-.53.26-.82a34,34,0,0,1,5.15-10.69A34.4,34.4,0,0,1,28,72.86l-.26-.13-.2-.11-.47-.24L27,72.31c-.25-.14-.5-.27-.74-.42A26.15,26.15,0,0,1,23.47,70,37.63,37.63,0,0,0,20,73.73c-.25.3-.49.6-.74.92l-.66.92a35.58,35.58,0,0,0-3.34,5.68A6.23,6.23,0,0,0,22.37,90Z" transform="translate(-4.6 -5.06)"/><path class="cls-3" d="M57.1,83.41a6.77,6.77,0,0,1-.72,2.1c-.12.22-.24.43-.37.62a4.16,4.16,0,0,1-.41.51,4.53,4.53,0,0,1-3.52,1.45,8.22,8.22,0,0,1-2.25-.33h0a2.53,2.53,0,0,1-.43-.19,6,6,0,0,0-.19,3.4,5.11,5.11,0,0,0,1,2.44,3.76,3.76,0,0,0,.38.41,3.16,3.16,0,0,0,.44.39,5.12,5.12,0,0,0,.79.5A7,7,0,0,0,58,94.46a19.06,19.06,0,0,0,4.8-3.91L63.3,90l.5-.6a27,27,0,0,0,3.47-5.61c.09-.2.18-.39.26-.59l.12-.29.13-.3c.07-.18.13-.36.19-.55L68,82a15,15,0,0,0,.66-2.45A9.82,9.82,0,0,0,66,70.62c-.3.22-.61.42-.93.62l-.43.29c-.15.1-.3.18-.45.27-.33.19-.66.39-1,.57a34,34,0,0,1-7.15,2.85,17.59,17.59,0,0,1,1.19,6.72,2.85,2.85,0,0,0,1.11-2.66l.51-.11.51-.11C59.71,80.64,58.93,82.11,57.1,83.41Z" transform="translate(-4.6 -5.06)"/><path class="cls-3" d="M19.43,28.31a11.18,11.18,0,0,1-2.8-5.45A11.11,11.11,0,0,1,17,16.6a5.15,5.15,0,0,1,3.58-3.45,5.15,5.15,0,0,1,4.69,1.67A10.89,10.89,0,0,1,28.05,20a30.05,30.05,0,0,1,7-3.06c-.7-2.13-2.27-5.7-5.38-7.72A10.74,10.74,0,0,0,21,8.09a10.48,10.48,0,0,0-7.2,5.21c-2.42,4.59-1.22,10.73-.13,13.64a17.38,17.38,0,0,0,3.54,5.42A29.83,29.83,0,0,1,19.43,28.31Z" transform="translate(-4.6 -5.06)"/><path class="cls-3" d="M80.81,20.07c-5.9-6.3-11.64-5.85-15.42-4.35a16.13,16.13,0,0,0-5.29,3.46l-.39.4-.37.42a4.38,4.38,0,0,0-1.21,2.07H57.08a4.79,4.79,0,0,1,1.3-2.55A29.46,29.46,0,0,0,45.6,16.41a40.35,40.35,0,0,0-9.24,1.26l-.5.13-.51.15a28.92,28.92,0,0,0-7.1,3.17l-.46.29-.5.33a25.8,25.8,0,0,0-6.48,6.41l-.29.43-.3.43A28.42,28.42,0,0,0,18,33.16c-.08.17-.14.35-.22.53l-.21.53a37.13,37.13,0,0,0-2.33,15.56c.48,9.27,3.82,15.09,8.18,18.84l.42.35.42.34a24.42,24.42,0,0,0,3.29,2.15l.36.19.1,0a5.06,5.06,0,0,0,.46.24l.31.15,1,.46q1,.45,2.1.84l.51.18.53.18A47.52,47.52,0,0,0,37.61,75a31.53,31.53,0,0,0,5.85.66c-.2-1.23-.24-2-.25-2s0-.06,0-.09,0-.07,0-.11a.86.86,0,0,1,.1-.16s0,0,0-.06c.25-.22.48-.44.7-.67s.33-.34.48-.52l.41-.51.2-.27c-.29.09-.6.18-.91.25a18.9,18.9,0,0,1-4.36.49,25.58,25.58,0,0,1-4.74-.46l-.34-.07-.6-.12-.58-.13q-1.08-.25-2.19-.6c-.34-.1-.69-.22-1-.34l-.28-.09-.7-.27a25.75,25.75,0,0,1-3.81-1.77l-.48-.3q-.24-.14-.48-.3c-5.31-3.44-8-8.63-8.17-15.73-.07-3.18.18-7.1,2.74-9.74a12,12,0,0,1-.51-3.4,11.87,11.87,0,0,1,.41-3.05l.15-.56c.06-.18.12-.35.19-.53a12.73,12.73,0,0,1,2.83-4.47c.15-.16.29-.31.45-.46s.37-.32.56-.48a13.71,13.71,0,0,1,3.05-1.93c.25-.12.5-.25.77-.35s.44-.15.66-.23.43-.15.65-.21a2.55,2.55,0,0,1-.5-.3,2.4,2.4,0,0,1-.4-.38,2.73,2.73,0,0,1-.4-.6,2.57,2.57,0,0,1,.2-2.52,3,3,0,0,1,.51-.55,2.71,2.71,0,0,1,.49-.31,2.56,2.56,0,0,1,1.14-.28,2.59,2.59,0,0,1,2.4,1.63,2.68,2.68,0,0,1,.18.95,2.57,2.57,0,0,1-.78,1.85c.39,0,.78-.06,1.18-.06,7.57,0,13.74,5.76,13.74,12.84a12.08,12.08,0,0,1-1,4.83c6.26,3.29,9,8.27,8.78,15.53a14.48,14.48,0,0,1-1.79,6.82c-.11.2-.22.41-.34.6s-.3.4-.45.61-.22.3-.34.44a3.36,3.36,0,0,1,1.36,1.09,21.81,21.81,0,0,1,1.83,3.13,19.42,19.42,0,0,0,1.06,2c.11.19.22.38.33.59a32.44,32.44,0,0,0,8-3.37l.45-.28.35-.21.09-.06.65-.44.43-.31.44-.32.52-.38c5.9-4.72,8.94-11.48,9-20.1,0-1.24,0-2.45-.12-3.64a11.91,11.91,0,0,1-3.66.62,10.78,10.78,0,0,1-4-.76l.2-.48.19-.49a10.23,10.23,0,0,0,7.15.06l.51-.18.5-.22a14.8,14.8,0,0,0,4.41-23.63ZM48.46,30.66A2.58,2.58,0,1,1,51,28.08,2.59,2.59,0,0,1,48.46,30.66Zm26.28,5.48-.47.27-.47.22a8.12,8.12,0,0,1-3.27.69,8.2,8.2,0,0,1-8.2-8.19,8.11,8.11,0,0,1,2.31-5.68c.12-.13.25-.25.38-.37s.26-.24.4-.35a8.18,8.18,0,1,1,9.32,13.41Z" transform="translate(-4.6 -5.06)"/><path class="cls-4" d="M62.62,96.05c-.18-.69-1-1.32-2.33-1.81a16.89,16.89,0,0,1-1.79,1.14,8.51,8.51,0,0,1-3,1,.94.94,0,0,1-.06.15,3.52,3.52,0,0,0-.58,2.41,1.65,1.65,0,0,0,1,1,1.56,1.56,0,0,0,1.43.08c.73-.42.88-1.66.88-1.68a.52.52,0,0,1,.8-.38c.51.33,2.11,1.11,2.69.43C62.49,97.45,62.8,96.69,62.62,96.05Z" transform="translate(-4.6 -5.06)"/><path class="cls-4" d="M32.47,26.88a13.55,13.55,0,0,0-4.93.92c-.16.06-.3.14-.45.2a11.24,11.24,0,0,0-1.15.58,10.73,10.73,0,0,0-1.33.85,10.11,10.11,0,0,0-.88.71,11.63,11.63,0,0,0-3.4,5.09c-.06.17-.1.36-.15.54h0a10.76,10.76,0,0,0-.07,5.55,5.08,5.08,0,0,0,.15.52c0,.18.11.36.17.54a12.64,12.64,0,0,0,12,8.08A12.8,12.8,0,0,0,43.79,44c.09-.15.17-.31.25-.47s.15-.32.22-.49a10.87,10.87,0,0,0,.9-4.34C45.16,32.16,39.48,26.88,32.47,26.88ZM30.92,45a.52.52,0,0,1-.72-.17c-1-1.73-2.09-2.64-3-2.64h0a2.29,2.29,0,0,0-1.68,1.11.53.53,0,1,1-.91-.53,3.53,3.53,0,0,1,2.25-1.58,6.81,6.81,0,0,1,.09-.95c0-.19.07-.37.11-.53a4.42,4.42,0,0,1,.16-.51,4.37,4.37,0,0,1,.22-.56A6.81,6.81,0,0,1,24.68,37a4.16,4.16,0,0,1-1.3-3.62c.42-2.54,3.5-4.16,6.87-3.61S36,32.86,35.6,35.41c-.36,2.2-2.73,3.72-5.55,3.72A8.6,8.6,0,0,1,28.73,39L28.44,39c0,.07-.08.16-.13.27s-.13.32-.19.51-.09.34-.13.53a5.28,5.28,0,0,0-.12,1q1.65.45,3.23,3A.52.52,0,0,1,30.92,45Z" transform="translate(-4.6 -5.06)"/><path class="cls-5" d="M47,106.7a3.08,3.08,0,0,0-1-.16,2.25,2.25,0,0,0-1.31.39c-1.31.92-1.32,3.15,0,5a4.86,4.86,0,0,0,2.41,1.87,2.33,2.33,0,0,0,3.27-2.31A5.17,5.17,0,0,0,47,106.7Z" transform="translate(-4.6 -5.06)"/><path class="cls-5" d="M20.67,102.82a2.28,2.28,0,0,0-1.32.4c-1.3.92-1.32,3.15,0,5s3.39,2.56,4.7,1.64,1.32-3.15,0-5A4.43,4.43,0,0,0,20.67,102.82Z" transform="translate(-4.6 -5.06)"/><path class="cls-5" d="M24.52,15.56a4.54,4.54,0,0,0-3.09-1.46,2.88,2.88,0,0,0-.65.07A4.15,4.15,0,0,0,18,17a10,10,0,0,0-.29,5.66,10.16,10.16,0,0,0,2.39,4.78,28.44,28.44,0,0,1,2.13-2.63,27.41,27.41,0,0,1,4.94-4.19h0A10.09,10.09,0,0,0,24.52,15.56Z" transform="translate(-4.6 -5.06)"/><path class="cls-5" d="M70.53,22a7.12,7.12,0,0,0-4.29,1.44c-.14.11-.28.22-.41.34l-.39.35a7.14,7.14,0,0,0,8,11.53l.45-.22.48-.29A7.14,7.14,0,0,0,70.53,22Z" transform="translate(-4.6 -5.06)"/><path class="cls-2" d="M47.32,27a.74.74,0,1,0,.74.74A.74.74,0,0,0,47.32,27Z" transform="translate(-4.6 -5.06)"/><path class="cls-2" d="M28.31,24.44h0a.74.74,0,0,0,0-1.47A8.93,8.93,0,0,1,28.31,24.44Z" transform="translate(-4.6 -5.06)"/><path class="cls-2" d="M27.9,23.13a7.92,7.92,0,0,1-.07,1.1.78.78,0,0,0,.48.21A8.93,8.93,0,0,0,28.4,23h0A.74.74,0,0,0,27.9,23.13Z" transform="translate(-4.6 -5.06)"/><path class="cls-2" d="M27.61,23.7a.76.76,0,0,0,.22.53,7.92,7.92,0,0,0,.07-1.1A.73.73,0,0,0,27.61,23.7Z" transform="translate(-4.6 -5.06)"/><path class="cls-6" d="M30.08,30.81a7.78,7.78,0,0,0-1.17-.09c-2.31,0-4.22,1.15-4.5,2.84a3.17,3.17,0,0,0,1,2.72A6.31,6.31,0,0,0,28.9,38c2.8.46,5.35-.78,5.67-2.75S32.88,31.28,30.08,30.81Z" transform="translate(-4.6 -5.06)"/><path class="cls-7" d="M55.93,82a.59.59,0,0,1,.26.07A16.55,16.55,0,0,0,55,75.48L54.83,75l-.27-.49c-.05-.1-.1-.21-.15-.3-.43-.69-.78-1.38-1.11-2a18.9,18.9,0,0,0-1.73-3,2.51,2.51,0,0,0-1.3-.89,3.87,3.87,0,0,0-.59-.13h-.07l0,0a3.29,3.29,0,0,1,.33.41l.09.11a3.57,3.57,0,0,1,.41,2.87A5.72,5.72,0,0,1,50,72.73q-.1.24-.24.48l-.28.44a5,5,0,0,1-2.35,2,2.58,2.58,0,0,1-.77.16h-.2a3.78,3.78,0,0,1-.78-.1,3.2,3.2,0,0,1-1-.41c0,.13,0,.26.07.4s.06.36.1.55.06.33.1.5a35.38,35.38,0,0,0,1.35,4.79,14.43,14.43,0,0,0,.7,1.64.69.69,0,0,1,.44-.17.62.62,0,0,1,.62.62.61.61,0,0,1-.46.59,8,8,0,0,0,1.74,2c.17.12.31.23.45.31a3.43,3.43,0,0,0,.49.27l.06,0c2.46.67,4.11.21,5.13-1.4a5.14,5.14,0,0,0,.36-.66c.07-.16.14-.31.2-.49s0-.09.06-.15,0-.13.05-.18,0-.25.08-.38a3,3,0,0,0,.08-.32.4.4,0,0,1-.15,0,.51.51,0,0,1-.22,0l-.09,0a.62.62,0,0,1-.28-.5.6.6,0,0,1,.1-.32A.59.59,0,0,1,55.93,82ZM52.66,83a.6.6,0,0,1,0-1.19.6.6,0,0,1,0,1.19ZM54,74.4a.5.5,0,0,1,.37.17.51.51,0,0,1,.13.34.41.41,0,0,1,0,.19.5.5,0,0,1-.46.31.44.44,0,0,1-.32-.13.47.47,0,0,1-.18-.37.32.32,0,0,1,0-.14A.49.49,0,0,1,54,74.4Zm-3.78-1.56a.76.76,0,0,1,.48-.19.76.76,0,0,1,.73,1,.8.8,0,0,1-.32.42.83.83,0,0,1-.41.13.78.78,0,0,1-.77-.77.5.5,0,0,1,0-.13A.71.71,0,0,1,50.23,72.84Zm1.14,5a.73.73,0,1,1-.73-.73A.73.73,0,0,1,51.37,77.88Zm-4.8.12a.54.54,0,1,1,.53-.54A.54.54,0,0,1,46.57,78Zm2.06,2.91a.6.6,0,0,1,.61-.6.61.61,0,1,1-.61.6Zm5.78-1.74a.55.55,0,0,1-.37.53.45.45,0,0,1-.2,0,.55.55,0,0,1-.39-.16.56.56,0,0,1-.18-.41s0,0,0,0a.56.56,0,0,1,.56-.52.57.57,0,0,1,.46.24.54.54,0,0,1,.1.3S54.41,79.16,54.41,79.17Z" transform="translate(-4.6 -5.06)"/><path class="cls-8" d="M47.57,70.29a8.82,8.82,0,0,1-1,1.39,12,12,0,0,1,2.47.64,5.12,5.12,0,0,0,.38-1,2.58,2.58,0,0,0-.28-2s0,0,0,0-.24.19-.36.28A13.73,13.73,0,0,1,47.57,70.29Z" transform="translate(-4.6 -5.06)"/><path class="cls-8" d="M44.4,73.77a2.09,2.09,0,0,0,2,1,3.36,3.36,0,0,0,2.18-1.51,12.48,12.48,0,0,0-2.8-.61A13.77,13.77,0,0,1,44.4,73.77Z" transform="translate(-4.6 -5.06)"/><path class="cls-8" d="M46.61,71.68q-.21.25-.42.48a12.16,12.16,0,0,1,2.63.63c.1-.16.18-.31.26-.47A12,12,0,0,0,46.61,71.68Z" transform="translate(-4.6 -5.06)"/><path class="cls-8" d="M45.73,72.62a12.48,12.48,0,0,1,2.8.61c.1-.15.2-.29.29-.44a12.16,12.16,0,0,0-2.63-.63C46,72.32,45.88,72.48,45.73,72.62Z" transform="translate(-4.6 -5.06)"/><path class="cls-8" d="M48.2,68.7l.16-.13a1.39,1.39,0,0,0-.21-.11,2.85,2.85,0,0,1,0,.29Z" transform="translate(-4.6 -5.06)"/><path class="cls-8" d="M47.57,70.29a13.73,13.73,0,0,0,1.23-.73c.12-.09.23-.19.36-.28a2.55,2.55,0,0,0-.35-.38c-.28.21-.58.41-.89.6A5,5,0,0,1,47.57,70.29Z" transform="translate(-4.6 -5.06)"/><path class="cls-8" d="M48.12,68.75a4.17,4.17,0,0,1-.2.75c.31-.19.61-.39.89-.6a2.18,2.18,0,0,0-.45-.33l-.16.13Z" transform="translate(-4.6 -5.06)"/><path class="cls-8" d="M46.61,71.68a8.82,8.82,0,0,0,1-1.39c-.24.12-.48.25-.74.36-.18.32-.39.64-.62,1Z" transform="translate(-4.6 -5.06)"/><path class="cls-8" d="M45.45,72.6a12.6,12.6,0,0,1-1.07,1.14l0,0a13.77,13.77,0,0,0,1.33-1.15Z" transform="translate(-4.6 -5.06)"/><path class="cls-8" d="M45.85,72.11l.34,0q.21-.22.42-.48l-.4-.06Z" transform="translate(-4.6 -5.06)"/><path class="cls-8" d="M46.19,72.16l-.34,0c-.13.17-.26.33-.4.49l.28,0C45.88,72.48,46,72.32,46.19,72.16Z" transform="translate(-4.6 -5.06)"/><path class="cls-8" d="M48.15,68.46a1.39,1.39,0,0,0-.21-.11l-.28.69.46-.29A2.85,2.85,0,0,0,48.15,68.46Z" transform="translate(-4.6 -5.06)"/><path class="cls-8" d="M47.57,70.29a5,5,0,0,0,.35-.79c-.21.13-.43.25-.66.37a7.74,7.74,0,0,1-.43.78C47.09,70.54,47.33,70.41,47.57,70.29Z" transform="translate(-4.6 -5.06)"/><path class="cls-8" d="M48.12,68.75l-.46.29c-.11.25-.24.53-.4.83.23-.12.45-.24.66-.37A4.17,4.17,0,0,0,48.12,68.75Z" transform="translate(-4.6 -5.06)"/><path d="M82.71,18.28c-3.8-4.06-8-6.12-12.56-6.12A17.4,17.4,0,0,0,58.8,16.81a32.74,32.74,0,0,0-12.79-3h-.47a43,43,0,0,0-8.47,1,19,19,0,0,0-2.92-5,12.51,12.51,0,0,0-9.87-4.71,16.32,16.32,0,0,0-3.89.49,13,13,0,0,0-8.9,6.53c-2.67,5-1.81,11.66-.26,15.78a19,19,0,0,0,3.7,5.88,40.34,40.34,0,0,0-2.32,16.18c.44,8.23,3,14.77,7.76,19.46a40.08,40.08,0,0,0-3.57,4.21A25.72,25.72,0,0,0,8.92,81C5.38,86.2,4.23,92.27,5.49,99.06a10.61,10.61,0,0,0-.56,1.38c-.85,2.67.12,4.16.77,4.81a3.44,3.44,0,0,0,2.49,1,7.22,7.22,0,0,0,3.94-1.59,13.14,13.14,0,0,0,1.52-.21,15,15,0,0,0,.24,1.57,11.12,11.12,0,0,0,4,6.9,12.4,12.4,0,0,0,7.82,2.34c.56,0,1.13,0,1.72-.07,4.31-.34,8.79-4.43,11.5-7.39,0,3.52,1,7.79,4.64,9.69a15.34,15.34,0,0,0,7.16,1.71A17.19,17.19,0,0,0,58,117.59c4.9-2.36,6.59-6.11,8.72-10.86.69-1.53,1.4-3.11,2.31-4.87a14.62,14.62,0,0,0,1.29-3.8,8.16,8.16,0,0,0,4.83-2.89A10,10,0,0,0,77,87.38a8.06,8.06,0,0,0-5.89-6.55c.07-.29.13-.59.18-.88a12.6,12.6,0,0,0-2.16-9.73,25.44,25.44,0,0,0,6-7.65,30.61,30.61,0,0,0,3.13-13.76c0-1,0-2-.08-3a18.07,18.07,0,0,0,9.08-11.84A16.91,16.91,0,0,0,82.71,18.28ZM76.4,43.7l-.5.22-.51.18A10.23,10.23,0,0,1,68.24,44l-.19.49-.2.48a10.78,10.78,0,0,0,4,.76,11.91,11.91,0,0,0,3.66-.62c.09,1.19.13,2.4.12,3.64-.07,8.62-3.11,15.38-9,20.1l-.52.38-.44.32-.43.31-.65.44-.09.06-.35.21-.45.28a32.44,32.44,0,0,1-8,3.37c-.11-.21-.22-.4-.33-.59a19.42,19.42,0,0,1-1.06-2,21.81,21.81,0,0,0-1.83-3.13,3.36,3.36,0,0,0-1.36-1.09c.12-.14.22-.29.34-.44s.31-.4.45-.61.23-.4.34-.6A14.48,14.48,0,0,0,54,59c.22-7.26-2.52-12.24-8.78-15.53a12.08,12.08,0,0,0,1-4.83c0-7.08-6.17-12.84-13.74-12.84-.4,0-.79,0-1.18.06A2.57,2.57,0,0,0,32.07,24a2.68,2.68,0,0,0-.18-.95,2.59,2.59,0,0,0-2.4-1.63,2.56,2.56,0,0,0-1.14.28,2.71,2.71,0,0,0-.49.31,3,3,0,0,0-.51.55,2.57,2.57,0,0,0-.2,2.52,2.73,2.73,0,0,0,.4.6,2.4,2.4,0,0,0,.4.38,2.55,2.55,0,0,0,.5.3c-.22.06-.43.14-.65.21s-.45.14-.66.23-.52.23-.77.35a13.71,13.71,0,0,0-3.05,1.93c-.19.16-.38.31-.56.48s-.3.3-.45.46a12.73,12.73,0,0,0-2.83,4.47c-.07.18-.13.35-.19.53l-.15.56a11.87,11.87,0,0,0-.41,3.05,12,12,0,0,0,.51,3.4c-2.56,2.64-2.81,6.56-2.74,9.74.17,7.1,2.86,12.29,8.17,15.73q.24.17.48.3l.48.3a25.75,25.75,0,0,0,3.81,1.77l.7.27.28.09c.35.12.7.24,1,.34q1.11.35,2.19.6l.58.13.6.12.34.07a25.58,25.58,0,0,0,4.74.46,18.9,18.9,0,0,0,4.36-.49c.31-.07.62-.16.91-.25l-.2.27-.41.51c-.15.18-.31.35-.48.52s-.45.45-.7.67c0,0,0,0,0,.06a.54.54,0,0,0-.1.16s0,.07,0,.11,0,.06,0,.09,0,.8.25,2A31.53,31.53,0,0,1,37.61,75a47.52,47.52,0,0,1-4.72-1.26l-.53-.18-.51-.18q-1.05-.39-2.1-.84l-1-.46-.31-.15A5.06,5.06,0,0,1,28,71.7l-.1,0-.36-.19a24.42,24.42,0,0,1-3.29-2.15L23.83,69l-.42-.35c-4.36-3.75-7.7-9.57-8.18-18.84a37.13,37.13,0,0,1,2.33-15.56l.21-.53c.08-.18.14-.36.22-.53A28.42,28.42,0,0,1,20.22,29l.3-.43.29-.43a25.8,25.8,0,0,1,6.48-6.41l.5-.33.46-.29A28.92,28.92,0,0,1,35.35,18l.51-.15.5-.13a40.35,40.35,0,0,1,9.24-1.26,29.46,29.46,0,0,1,12.78,3.11,4.79,4.79,0,0,0-1.3,2.55h1.05A4.38,4.38,0,0,1,59.34,20l.37-.42.39-.4a16.13,16.13,0,0,1,5.29-3.46c3.78-1.5,9.52-2,15.42,4.35A14.8,14.8,0,0,1,76.4,43.7ZM44.73,115.18c-4.14-2.15-3.38-9.69-2.7-11.38a11.2,11.2,0,0,1,4.48-5,.51.51,0,0,0,.21-.7.53.53,0,0,0-.71-.22,12,12,0,0,0-4.8,5.22h-1a5,5,0,0,0-1.41-3.57.52.52,0,0,0-.74,0,.53.53,0,0,0,0,.74,4.19,4.19,0,0,1,1.07,3.13c-.83,1.06-7,8.79-12,9.19-6.17.49-9.68-1.83-10.73-7.08a12.15,12.15,0,0,1-.22-3.57.6.6,0,0,0,.06-.11c.12-.73.8-3.13,4.17-3.44,1.11,0,2.32,0,3.6.11a55.43,55.43,0,0,0,15.91-1,78,78,0,0,0,9.94-2.84,6,6,0,0,0,1.41,1,7,7,0,0,0,3,.73,4,4,0,0,0-.44,2.82,2.67,2.67,0,0,0,1.6,1.69,3.38,3.38,0,0,0,1.31.3,2.06,2.06,0,0,0,1.07-.28,3,3,0,0,0,1.23-1.73c.89.42,2.49,1,3.4-.11s1.41-2.29,1.14-3.28a3.81,3.81,0,0,0-2.38-2.28A20.47,20.47,0,0,0,63,91.88c.16-.15.31-.31.46-.47l.46-.51a28.18,28.18,0,0,0,3.65-5.33A40.78,40.78,0,0,1,68,95.65l-.06.53c0,.18,0,.35-.08.52a13.1,13.1,0,0,1-1.21,4c-.93,1.81-1.69,3.5-2.36,5-2.07,4.59-3.43,7.63-7.48,9.57A13.88,13.88,0,0,1,44.73,115.18ZM7.55,103.4c-.86-.86.16-3,.58-3.74a.56.56,0,0,0,.07-.38c-1.5-7.15-.12-13.36,4.11-18.45A23,23,0,0,1,16.39,77a37.61,37.61,0,0,0-2.06,3.8,7.26,7.26,0,0,0,.9,7.61,7.12,7.12,0,0,0,5.69,2.72,9.52,9.52,0,0,0,1.18-.09c.16,0,.32,0,.48-.08l.09,0,.23-.07c-.16.24-.28.44-.36.58s-.14.24-.15.27a.5.5,0,0,0,0,.43.54.54,0,0,0,.24.28.5.5,0,0,0,.21,0h0a.51.51,0,0,0,.45-.27c0-.06,3-5.41,7.15-7a.53.53,0,0,0,.3-.67.52.52,0,0,0-.68-.3,11.21,11.21,0,0,0-3.36,2.11c.11-.36.23-.73.35-1.11a32.62,32.62,0,0,1,5.17-10.64A49.76,49.76,0,0,0,37.39,76a34.79,34.79,0,0,0,6.26.67,38.12,38.12,0,0,0,1.44,5.17A10.81,10.81,0,0,0,48.5,87a6.88,6.88,0,0,0-.35,4.12,6.18,6.18,0,0,0,1,2.67,78.42,78.42,0,0,1-9.43,2.67,54.78,54.78,0,0,1-15.63,1c-1.11,0-2.15-.1-3.14-.11h-.59l-.15,0a6.78,6.78,0,0,0-1.07.2,5.5,5.5,0,0,0-2.07,1,5.08,5.08,0,0,0-1.77,2.74h-.06a11.36,11.36,0,0,1-3.8.72.51.51,0,0,0-.41.13C10.4,102.77,8.36,104.21,7.55,103.4ZM29.67,9.22c3.11,2,4.68,5.59,5.38,7.72a30.05,30.05,0,0,0-7,3.06,10.89,10.89,0,0,0-2.8-5.18,5.15,5.15,0,0,0-4.69-1.67A5.15,5.15,0,0,0,17,16.6a11.11,11.11,0,0,0-.35,6.26,11.18,11.18,0,0,0,2.8,5.45,29.83,29.83,0,0,0-2.22,4.05,17.38,17.38,0,0,1-3.54-5.42c-1.09-2.91-2.29-9,.13-13.64A10.48,10.48,0,0,1,21,8.09,10.74,10.74,0,0,1,29.67,9.22Zm-9.62,18.2a10.16,10.16,0,0,1-2.39-4.78A10,10,0,0,1,18,17a4.15,4.15,0,0,1,2.83-2.81,2.88,2.88,0,0,1,.65-.07,4.54,4.54,0,0,1,3.09,1.46,10.09,10.09,0,0,1,2.6,5h0a27.41,27.41,0,0,0-4.94,4.19A28.44,28.44,0,0,0,20.05,27.42Zm7.56-3.72a.78.78,0,0,1,.74-.74h0a.74.74,0,0,1,0,1.47h0a.78.78,0,0,1-.48-.21A.76.76,0,0,1,27.61,23.7ZM44.46,75.28a3.2,3.2,0,0,0,1,.41,3.78,3.78,0,0,0,.78.1h.2a2.58,2.58,0,0,0,.77-.16,5,5,0,0,0,2.35-2l.28-.44q.14-.24.24-.48a5.72,5.72,0,0,0,.43-1.12,3.57,3.57,0,0,0-.41-2.87L50,68.63a3.29,3.29,0,0,0-.33-.41l0,0h.07a3.87,3.87,0,0,1,.59.13,2.51,2.51,0,0,1,1.3.89,18.9,18.9,0,0,1,1.73,3c.33.66.68,1.35,1.11,2,.05.09.1.2.15.3l.27.49.21.46a16.55,16.55,0,0,1,1.15,6.62.56.56,0,0,0-.75.2.6.6,0,0,0-.1.32.62.62,0,0,0,.28.5l.09,0a.51.51,0,0,0,.22,0,.4.4,0,0,0,.15,0,3,3,0,0,1-.08.32c0,.13,0,.26-.08.38s0,.13-.05.18,0,.1-.06.15-.13.33-.2.49a5.14,5.14,0,0,1-.36.66c-1,1.61-2.67,2.07-5.13,1.4l-.06,0a3.43,3.43,0,0,1-.49-.27c-.14-.08-.28-.19-.45-.31a8,8,0,0,1-1.74-2,.61.61,0,0,0,.46-.59.62.62,0,0,0-.62-.62.69.69,0,0,0-.44.17,14.43,14.43,0,0,1-.7-1.64,35.38,35.38,0,0,1-1.35-4.79c0-.17-.07-.34-.1-.5s-.07-.38-.1-.55S44.48,75.41,44.46,75.28Zm-8.94-4.75-.46-.09c-.2,0-.4-.07-.6-.12l-.59-.14c-.4-.09-.8-.2-1.21-.31l-1.12-.33-1.05-.35a25,25,0,0,1-3.94-1.75L26,67.16l-.48-.31c-5.21-3.26-7.85-8.23-8-15.06-.07-2.81.13-6.22,2.08-8.59a13.75,13.75,0,0,0,12.84,8.31,13.87,13.87,0,0,0,12.25-7.06c5.85,3.13,8.41,7.8,8.21,14.55a13,13,0,0,1-2.14,7.1,6.85,6.85,0,0,1-.45.61c-.13.16-.26.31-.4.46a6.92,6.92,0,0,0-1.9,0,4.19,4.19,0,0,0-.53.09h0a.05.05,0,0,0,0,0h0l-.13,0,0,0a.34.34,0,0,0-.08.09.56.56,0,0,0,0,.08l0,.07s0,.1-.09.27a14.28,14.28,0,0,1-.92,2A19,19,0,0,1,35.52,70.53ZM20.33,35.23a11.63,11.63,0,0,1,3.4-5.09,10.11,10.11,0,0,1,.88-.71,10.73,10.73,0,0,1,1.33-.85A11.24,11.24,0,0,1,27.09,28c.15-.06.29-.14.45-.2a13.55,13.55,0,0,1,4.93-.92c7,0,12.69,5.28,12.69,11.79a10.87,10.87,0,0,1-.9,4.34c-.07.17-.14.33-.22.49s-.16.32-.25.47a12.8,12.8,0,0,1-11.32,6.49,12.64,12.64,0,0,1-12-8.08c-.06-.18-.12-.36-.17-.54a5.08,5.08,0,0,1-.15-.52,10.76,10.76,0,0,1,.07-5.55h0C20.23,35.59,20.27,35.4,20.33,35.23ZM44.38,73.74a12.6,12.6,0,0,0,1.07-1.14c.14-.16.27-.32.4-.49l.36-.49c.23-.33.44-.65.62-1a7.74,7.74,0,0,0,.43-.78c.16-.3.29-.58.4-.83l.28-.69a1.39,1.39,0,0,1,.21.11,1.39,1.39,0,0,1,.21.11,2.18,2.18,0,0,1,.45.33,2.55,2.55,0,0,1,.35.38s0,0,0,0a2.58,2.58,0,0,1,.28,2,5.12,5.12,0,0,1-.38,1c-.08.16-.16.31-.26.47s-.19.29-.29.44a3.36,3.36,0,0,1-2.18,1.51,2.09,2.09,0,0,1-2-1ZM55.52,96.33a8.51,8.51,0,0,0,3-1,16.89,16.89,0,0,0,1.79-1.14c1.34.49,2.15,1.12,2.33,1.81s-.13,1.4-.92,2.32c-.58.68-2.18-.1-2.69-.43a.52.52,0,0,0-.8.38s-.15,1.26-.88,1.68a1.56,1.56,0,0,1-1.43-.08,1.65,1.65,0,0,1-1-1,3.52,3.52,0,0,1,.58-2.41A.94.94,0,0,0,55.52,96.33ZM68.66,79.52A15,15,0,0,1,68,82l0,.08c-.06.19-.12.37-.19.55l-.13.3-.12.29c-.08.2-.17.39-.26.59a27,27,0,0,1-3.47,5.61l-.5.6-.49.56A19.06,19.06,0,0,1,58,94.46a7,7,0,0,1-6.22.25,5.12,5.12,0,0,1-.79-.5,3.16,3.16,0,0,1-.44-.39,3.76,3.76,0,0,1-.38-.41,5.11,5.11,0,0,1-1-2.44,6,6,0,0,1,.19-3.4,2.53,2.53,0,0,0,.43.19h0a8.22,8.22,0,0,0,2.25.33,4.53,4.53,0,0,0,3.52-1.45,4.16,4.16,0,0,0,.41-.51c.13-.19.25-.4.37-.62a6.77,6.77,0,0,0,.72-2.1c1.83-1.3,2.61-2.77,2.28-4.35l-.51.11-.51.11a2.85,2.85,0,0,1-1.11,2.66,17.59,17.59,0,0,0-1.19-6.72,34,34,0,0,0,7.15-2.85c.34-.18.67-.38,1-.57.15-.09.3-.17.45-.27l.43-.29c.32-.2.63-.4.93-.62A9.82,9.82,0,0,1,68.66,79.52ZM19.28,74.65c.25-.32.49-.62.74-.92A37.63,37.63,0,0,1,23.47,70a26.15,26.15,0,0,0,2.76,1.87c.24.15.49.28.74.42l.12.07.47.24.2.11.26.13a34.4,34.4,0,0,0,3.19,1.38,34,34,0,0,0-5.15,10.69c-.09.29-.17.55-.26.82a7,7,0,0,0-.86-2.38,5.07,5.07,0,0,0-.41-.56,3.61,3.61,0,0,0-.43-.44,3.39,3.39,0,0,0-1.7-.86.53.53,0,0,0-.58.46.53.53,0,0,0,.46.58,2.6,2.6,0,0,1,1.53,1,4.43,4.43,0,0,1,.4.62,5.46,5.46,0,0,1,.35.83,9.85,9.85,0,0,1,.4,2.88,5.75,5.75,0,0,1-.42.69l-.28.35a3,3,0,0,1-.72.54,3.56,3.56,0,0,1-.59.28c-.19.06-.37.12-.58.17h0a6.23,6.23,0,0,1-7.09-8.7,35.58,35.58,0,0,1,3.34-5.68Zm49.08,9.29c.12-.29.24-.57.35-.85h0a5.68,5.68,0,0,1,5.65,4.78,7.2,7.2,0,0,1-1.79,6.23,6,6,0,0,1-3.51,1.51A44,44,0,0,0,68.36,83.94Z" transform="translate(-4.6 -5.06)"/><path d="M47.35,105.71a3.51,3.51,0,0,0-3.21.37c-1.78,1.25-1.91,4.13-.29,6.43a5.82,5.82,0,0,0,2.94,2.25,4,4,0,0,0,1.3.22,3.25,3.25,0,0,0,1.91-.59,3.56,3.56,0,0,0,1.43-2.9A5.93,5.93,0,0,0,50.29,108,5.87,5.87,0,0,0,47.35,105.71Zm-.24,8.06a4.86,4.86,0,0,1-2.41-1.87c-1.28-1.82-1.27-4.05,0-5a2.25,2.25,0,0,1,1.31-.39,3.08,3.08,0,0,1,1,.16,5.17,5.17,0,0,1,3.36,4.76,2.33,2.33,0,0,1-3.27,2.31Z" transform="translate(-4.6 -5.06)"/><path d="M18.75,102.37c-1.78,1.25-1.91,4.14-.29,6.43a5.46,5.46,0,0,0,4.25,2.46,3.21,3.21,0,0,0,1.9-.58c1.78-1.25,1.91-4.13.29-6.43S20.53,101.11,18.75,102.37Zm.56,5.82c-1.28-1.82-1.26-4,0-5a2.28,2.28,0,0,1,1.32-.4,4.43,4.43,0,0,1,3.38,2c1.28,1.82,1.27,4,0,5S20.6,110,19.31,108.19Z" transform="translate(-4.6 -5.06)"/><path d="M70.53,20.94a8.16,8.16,0,0,0-5.11,1.79c-.14.11-.27.23-.4.35s-.26.24-.38.37a8.11,8.11,0,0,0-2.31,5.68,8.2,8.2,0,0,0,8.2,8.19,8.12,8.12,0,0,0,3.27-.69l.47-.22.47-.27a8.18,8.18,0,0,0-4.21-15.2Zm0,15.33a7.14,7.14,0,0,1-5.09-12.16l.39-.35c.13-.12.27-.23.41-.34a7.14,7.14,0,1,1,8.15,11.71l-.48.29-.45.22A7.2,7.2,0,0,1,70.53,36.27Z" transform="translate(-4.6 -5.06)"/><path d="M38.25,54.24c-1.3.07-2.26,2-2.14,4.22s1.27,4,2.57,4,2.26-2,2.14-4.21S39.55,54.17,38.25,54.24Z" transform="translate(-4.6 -5.06)"/><path d="M22.28,50.72c-1.1.06-1.91,1.68-1.8,3.62s1.07,3.47,2.18,3.41,1.91-1.68,1.8-3.62S23.39,50.66,22.28,50.72Z" transform="translate(-4.6 -5.06)"/><path d="M48.46,25.5A2.58,2.58,0,1,0,51,28.08,2.58,2.58,0,0,0,48.46,25.5Zm-1.14,3a.74.74,0,1,1,.74-.74A.74.74,0,0,1,47.32,28.48Z" transform="translate(-4.6 -5.06)"/><path d="M27.41,38.67a4.37,4.37,0,0,0-.22.56,4.42,4.42,0,0,0-.16.51c0,.16-.08.34-.11.53a6.81,6.81,0,0,0-.09.95,3.53,3.53,0,0,0-2.25,1.58.53.53,0,1,0,.91.53,2.29,2.29,0,0,1,1.68-1.11h0c.93,0,2,.91,3,2.64a.53.53,0,0,0,.9-.55q-1.58-2.58-3.23-3a5.28,5.28,0,0,1,.12-1c0-.19.08-.36.13-.53s.13-.37.19-.51.09-.2.13-.27l.29.07a8.6,8.6,0,0,0,1.32.11c2.82,0,5.19-1.52,5.55-3.72.42-2.55-2-5.07-5.35-5.63s-6.45,1.07-6.87,3.61A4.16,4.16,0,0,0,24.68,37,6.81,6.81,0,0,0,27.41,38.67Zm-3-5.11c.28-1.69,2.19-2.84,4.5-2.84a7.78,7.78,0,0,1,1.17.09c2.8.47,4.82,2.45,4.49,4.43S31.7,38.45,28.9,38a6.31,6.31,0,0,1-3.47-1.71A3.17,3.17,0,0,1,24.41,33.56Z" transform="translate(-4.6 -5.06)"/><path d="M46.57,78a.54.54,0,1,0-.53-.54A.54.54,0,0,0,46.57,78Z" transform="translate(-4.6 -5.06)"/><path d="M50.71,74.2a.83.83,0,0,0,.41-.13.8.8,0,0,0,.32-.42.76.76,0,0,0-.73-1,.76.76,0,0,0-.48.19.71.71,0,0,0-.26.46.5.5,0,0,0,0,.13A.78.78,0,0,0,50.71,74.2Z" transform="translate(-4.6 -5.06)"/><path d="M50.64,78.61a.73.73,0,1,0-.73-.73A.73.73,0,0,0,50.64,78.61Z" transform="translate(-4.6 -5.06)"/><circle cx="48.06" cy="77.31" r="0.59"/><path d="M54,75.41a.5.5,0,0,0,.46-.31.41.41,0,0,0,0-.19.51.51,0,0,0-.13-.34A.5.5,0,0,0,54,74.4a.49.49,0,0,0-.47.37.32.32,0,0,0,0,.14.47.47,0,0,0,.18.37A.44.44,0,0,0,54,75.41Z" transform="translate(-4.6 -5.06)"/><path d="M53.84,79.74a.45.45,0,0,0,.2,0,.55.55,0,0,0,.37-.53s0,0,0,0-.07-.2-.1-.3a.57.57,0,0,0-.46-.24.56.56,0,0,0-.56.52s0,0,0,0a.56.56,0,0,0,.18.41A.55.55,0,0,0,53.84,79.74Z" transform="translate(-4.6 -5.06)"/><circle cx="44.64" cy="75.85" r="0.61"/></svg>