<svg id="icon" xmlns="http://www.w3.org/2000/svg" width="75" height="75" viewBox="0 0 75 75">
  <g id="타원_2671" data-name="타원 2671" fill="none" stroke="#54b935" stroke-width="3" opacity="0.8">
    <circle cx="37.5" cy="37.5" r="37.5" stroke="none"/>
    <circle cx="37.5" cy="37.5" r="36" fill="none"/>
  </g>
  <circle id="타원_2673" data-name="타원 2673" cx="30.5" cy="30.5" r="30.5" transform="translate(7 7)" fill="#54b935"/>
  <path id="패스_88139" data-name="패스 88139" d="M-419.839,653.792h-19.687c0-1.071-.048-2.113.015-3.148a1.868,1.868,0,0,0-1.025-1.878,19.316,19.316,0,0,1-9.11-15.212c-.174-1.9-.141-1.913,1.833-1.954.388-.008.776-.054,1.3-.092-1.414-3.332-1.078-6.284,1.743-8.9l2,1.777c1.441-3.368,3.792-5.3,7.8-5.078v4.679c1.565-.417,2.981-.76,4.371-1.187a2.9,2.9,0,0,0,1.036-.742,6.931,6.931,0,0,1,9.733-.08,3.073,3.073,0,0,0,1.3.834c5.046,1.048,6.913,3.535,6.33,8.7l2.447.193a17.7,17.7,0,0,1-1.549,8.328,18.49,18.49,0,0,1-7.29,8.58,2.216,2.216,0,0,0-1.265,2.334C-419.768,651.842-419.839,652.757-419.839,653.792Zm8.5-20.557h-36.622a5.81,5.81,0,0,0-.072.642,5.891,5.891,0,0,0,.057.869,17.718,17.718,0,0,0,8.009,12.54,5.709,5.709,0,0,0,2.867.856c4.255.092,8.531-.191,12.765.117,3.474.253,5.872-1.189,8.01-3.489a20.155,20.155,0,0,0,2.108-2.621A16.378,16.378,0,0,0-411.336,633.235Zm-12.538-8.59v7.016c3-.174,3.794-3.052,5.951-4.133l.936.969L-420,631.6c2.063,0,3.729.049,5.386-.043.317-.018.763-.551.873-.925a5.021,5.021,0,0,0-4.726-6.2,2.612,2.612,0,0,1-2.21-1.023,5.13,5.13,0,0,0-8,.009,2.291,2.291,0,0,1-2.062,1.01c-1.821-.034-4.022,1.248-4.167,2.495a40.035,40.035,0,0,0-.042,4.586h5.765l-3.438-2.952,1.072-1.076c2.337,1.164,3.089,4.075,6.168,4.095v-6.932Zm2.378,25.181H-437.83v2.412H-421.5Zm-16.646-18.235.208-.4-6.5-6.588c-1.644,2.18-1.714,4.665-.437,6.321a1.507,1.507,0,0,0,.893.635C-442.036,631.619-440.088,631.591-438.141,631.591Zm1.488-10.623a5.123,5.123,0,0,0-4.531,4.084,1.474,1.474,0,0,0,.184,1.079c1.328,1.39,2.721,2.719,4.347,4.32Z" transform="translate(467.638 -598.814)" fill="#fff"/>
</svg>
