<svg id="icon" xmlns="http://www.w3.org/2000/svg" width="75" height="75" viewBox="0 0 75 75">
  <g id="타원_2671" data-name="타원 2671" fill="none" stroke="#fc990d" stroke-width="3" opacity="0.8">
    <circle cx="37.5" cy="37.5" r="37.5" stroke="none"/>
    <circle cx="37.5" cy="37.5" r="36" fill="none"/>
  </g>
  <circle id="타원_2673" data-name="타원 2673" cx="30.5" cy="30.5" r="30.5" transform="translate(7 7)" fill="#fc990d"/>
  <g id="그룹_17052" data-name="그룹 17052" transform="translate(25.122 18.133)">
    <path id="패스_88153" data-name="패스 88153" d="M2743.517,1465.977c-.226-4.106-1.774-7.162-6.859-13.025a12.141,12.141,0,0,1-3.083-7.614.377.377,0,0,0-.561-.314c-1.619.893-4.47,3.113-4.949,5.523a6.541,6.541,0,0,0,.038,2.452,24.568,24.568,0,0,0,1.671,4.229,3.643,3.643,0,0,1,.247.656,7.143,7.143,0,0,1-.475,5.271,5.709,5.709,0,0,1-5.484,2.64,5.816,5.816,0,0,1-5.164-3.9,6,6,0,0,1,.068-4.15.165.165,0,0,0-.274-.172,14.3,14.3,0,1,0,24.826,9.686C2743.517,1466.96,2743.524,1466.113,2743.517,1465.977Z" transform="translate(-2716.529 -1443.609)" fill="none" stroke="#fff" stroke-miterlimit="10" stroke-width="2"/>
    <path id="패스_88154" data-name="패스 88154" d="M2775.546,1529.545a11.857,11.857,0,0,1-11.151,7.827" transform="translate(-2754.017 -1505.178)" fill="none" stroke="#fff" stroke-miterlimit="10" stroke-width="2"/>
  </g>
</svg>
