<svg xmlns="http://www.w3.org/2000/svg" width="207.146" height="291.391" viewBox="0 0 207.146 291.391">
  <g id="그룹_17458" data-name="그룹 17458" transform="translate(-1529.62 -1308.644)">
    <path id="패스_88411" data-name="패스 88411" d="M1106.86,84.771c-1.307,6.914-4.393,26.856.532,40.352,1.728,4.729,5.663,7.675,10.27,7.69h.038c7.456,0,12.735-7.042,15.195-13.641,5.017-13.47,4.465-27.342,3.872-33.447a103.583,103.583,0,0,1-11.507.636,110.639,110.639,0,0,1-18.4-1.59" transform="translate(505.458 1398.269)" fill="#f6ecd3"/>
    <path id="패스_88412" data-name="패스 88412" d="M1089.993,22.22a1.934,1.934,0,0,0-1.285,1.348c-1.025,3.009,1,9.357,5.034,16.535a82.333,82.333,0,0,1,10.728-9.512c-4.874-4.248-10.84-8.471-13.783-8.471a2.28,2.28,0,0,0-.695.1" transform="translate(480.361 1301.542)" fill="#814500"/>
    <path id="패스_88413" data-name="패스 88413" d="M1165.587,33.555c-3.025-2.015-8.1-2.335-14.8-1.015-.453.089-.916.188-1.384.293-.483.109-.962.211-1.46.336-1,.247-2.01.514-3.068.827a101.846,101.846,0,0,0-11.351,4.164c5.624,3.892,11.681,14.991,13.8,19.115a118.371,118.371,0,0,0,9.629-7.512c.359-.313.72-.626,1.074-.944s.712-.654,1.063-.982c4.409-4.111,8.062-8.484,8.059-11.618a3.047,3.047,0,0,0-1.567-2.663" transform="translate(549.969 1316.403)" fill="#814500"/>
    <path id="패스_88414" data-name="패스 88414" d="M1120.91,42.411a5.286,5.286,0,0,0-.552-.867c-2.312-2.951-7.759-4.729-14.569-4.755h-.145c-5.042,0-9.268,1.063-11.88,2.956a8.471,8.471,0,0,0-1.018.862c-.163.163-.29.338-.43.506-.076.092-.163.181-.232.275-.15.4-.285.771-.4,1.112-.415,1.208-.649,2.035-.728,2.345.043,2.753,1.468,5.017,8.334,8.311a4.227,4.227,0,0,0,2.872.282l.331-.084c8.448-2.167,17.153-4.411,18.629-8.24a3.554,3.554,0,0,0,.15-.4,2.8,2.8,0,0,0,.051-.911,3.72,3.72,0,0,0-.41-1.389" transform="translate(484.235 1324.188)" fill="#46271f"/>
    <path id="패스_88415" data-name="패스 88415" d="M1160.737,59.966a23.41,23.41,0,0,1-10.112,5.731c-.516,4.233-1.42,8.952-6.162,8.952h-.14a6.329,6.329,0,0,1-4.572-2.061,13.74,13.74,0,0,1-2.946-5.838c-.435-.048-.875-.079-1.3-.142-13.234-1.959-20.621-8.66-23.524-14.773-2.707,3.788-7.98,6.993-16.161,7.444-.6,3.643-1.844,7.092-5.892,7.092h-.142a6.32,6.32,0,0,1-4.569-2.061,8.718,8.718,0,0,1-.656-.789,50.774,50.774,0,0,0-.567,7.838v.4c0,8.255.013,19.952,8.064,30.677a14.3,14.3,0,0,1,16.576,11.465l.427,2.287a80.156,80.156,0,0,0,8.866,3.91,77.46,77.46,0,0,0,17.861,4.49c.514.061,1.03.13,1.536.178.529.048,1.048.076,1.57.112a44,44,0,0,0,17.426-2.063,33.371,33.371,0,0,0,3.925-1.654,31.265,31.265,0,0,0,2.783-1.559c.244-.153.5-.29.735-.45,7.988-5.345,12.583-14.119,12.936-24.707.448-13.511-5.459-25.566-15.96-34.485M1097.65,84.444c-2.8.148-5.286-3.734-5.546-8.672s1.8-9.059,4.6-9.206,5.284,3.734,5.545,8.672-1.8,9.059-4.6,9.206m33.845.321c-.3-5.749,2.134-10.55,5.444-10.725s6.24,4.342,6.543,10.092-2.132,10.55-5.444,10.725-6.24-4.342-6.543-10.092" transform="translate(473.488 1347.42)" fill="#fff"/>
    <path id="패스_88416" data-name="패스 88416" d="M1105.873,58.147a9.981,9.981,0,0,0,2.02,3.788,3.714,3.714,0,0,0,2.7,1.236l.069,0c2.2,0,2.9-2.1,3.406-5.627a35.66,35.66,0,0,1-6.79.651c-.471,0-.939-.033-1.407-.051" transform="translate(507.27 1356.237)" fill="#fff"/>
    <path id="패스_88417" data-name="패스 88417" d="M1084.4,54.432c.119.384.257.748.4,1.109a8.914,8.914,0,0,0,1.712,2.923,3.7,3.7,0,0,0,2.7,1.239h.069c1.931,0,2.715-1.608,3.213-4.386a47.243,47.243,0,0,1-7.41-.766c-.226-.041-.45-.076-.679-.12" transform="translate(474.116 1351.428)" fill="#fff"/>
    <path id="패스_88418" data-name="패스 88418" d="M1090.8,75.2c.25.064.491.145.743.2.079.015.147.023.224.038.468.092.911.158,1.364.237a44.056,44.056,0,0,0,6.82.656c.461.005.906,0,1.345-.015.461-.013.906-.036,1.346-.066,8.5-.6,13.226-4.454,14.793-8.438l1.493-3.8,1.033,3.951c1.547,5.925,8.336,13.582,22.386,15.66.1.015.209.023.31.036.458.064.918.117,1.381.163s.921.076,1.384.1a33.32,33.32,0,0,0,9.237-.7c.466-.1.924-.226,1.381-.354s.942-.267,1.4-.425a20.345,20.345,0,0,0,7.622-4.51c.321-.31.636-.626.934-.962s.577-.679.847-1.04a16.018,16.018,0,0,0,1.763-3.063,86.98,86.98,0,0,0-10.527-2.557c-1.671-.3-3.2-.539-4.5-.72-2.692-.371-4.434-.506-4.5-.511a1.33,1.33,0,0,1-1.229-1.425,1.218,1.218,0,0,1,.089-.313,1.322,1.322,0,0,1,1.333-.916c.021,0,.1.008.133.01a97.784,97.784,0,0,1,20.095,3.918c.04-.15.1-.287.135-.44a18.515,18.515,0,0,0-1.058-11.768,172.317,172.317,0,0,0-18.492.471,1.331,1.331,0,1,1-.244-2.651,170.156,170.156,0,0,1,17.253-.539c-.186-.29-.353-.59-.557-.875-3.358-4.722-10.491-10.618-25.449-12.679-.079.107-.1.137-.135.188-1.618,5.406-10.42,7.675-20.6,10.288l-.331.084a6.793,6.793,0,0,1-1.7.216,6.9,6.9,0,0,1-2.979-.677c-7.181-3.444-9.855-6.383-9.855-10.842a7.992,7.992,0,0,1,.288-2.02,39.952,39.952,0,0,0-14.737,3.826c-.557.287-1.125.565-1.654.893a20.739,20.739,0,0,0-1.727,1.231,17.667,17.667,0,0,0-4.637,5.159c-.028.046-.046.094-.074.142,1.2.01,2.315.046,3.317.107.468.025.921.056,1.341.089.479.038.929.081,1.343.122,2.119.221,3.378.478,3.534.509a1.331,1.331,0,0,1-.547,2.6c-.038-.008-1.358-.27-3.615-.483-.418-.041-.865-.076-1.344-.112-.422-.031-.86-.059-1.328-.081-1.2-.061-2.559-.089-4.032-.074a19.99,19.99,0,0,0-1.8,8.456,40,40,0,0,1,4.358-.669c.481-.043.926-.074,1.338-.092.511-.023.956-.028,1.369-.023a13.575,13.575,0,0,1,2.529.209,1.33,1.33,0,0,1-.565,2.6,12.81,12.81,0,0,0-2.422-.14c-.4.008-.867.028-1.371.064-.412.028-.855.069-1.333.122-1.035.12-2.236.31-3.582.6a14.154,14.154,0,0,0,.944,3.037,14.054,14.054,0,0,0,2.961,4.231,14.491,14.491,0,0,0,1.246,1.1,14.8,14.8,0,0,0,2.648,1.633,15.435,15.435,0,0,0,1.429.6c.369.135.743.252,1.125.359.1.028.211.053.316.081" transform="translate(467.029 1327.772)" fill="#f6ecd3"/>
    <path id="패스_88419" data-name="패스 88419" d="M1115.924,35.805a1.885,1.885,0,1,0-1.885-1.885,1.886,1.886,0,0,0,1.885,1.885" transform="translate(519.878 1316.849)" fill="#fff"/>
    <path id="패스_88420" data-name="패스 88420" d="M1093.034,33.524a1.845,1.845,0,0,0,1.086.384,1.873,1.873,0,0,0,.83-3.556,1.843,1.843,0,0,0-.83-.214,1.894,1.894,0,0,0-1.887,1.885c0,.053.028.1.03.15a1.841,1.841,0,0,0,.771,1.351" transform="translate(486.211 1313.92)" fill="#fff"/>
    <path id="패스_88421" data-name="패스 88421" d="M1094.07,93.294a13.334,13.334,0,0,1-1.336.453,13.121,13.121,0,0,1-1.348.234l.786,3.035a1.385,1.385,0,0,0,2.682-.695Z" transform="translate(484.904 1411.428)" fill="#fff"/>
    <path id="패스_88422" data-name="패스 88422" d="M1166.144,86.785c-.883-.081-1.732-.14-2.557-.183.685,1.725.308,3.381-.371,5.528-.85,2.691-2.282,3.493-4.386,3.493a26.281,26.281,0,0,1-4.594-.641c-2.139-.415-3.442-1.119-4.093-2.213a4.566,4.566,0,0,1-.13-3.717,20.8,20.8,0,0,0-5.457,4.569,8.681,8.681,0,0,1,2.956,4.615,3.479,3.479,0,0,1-.348,2.915c-.969,1.531-3.172,2.5-7.149,3.121a5.2,5.2,0,0,1-.862.074,3.453,3.453,0,0,1-1.208-.219,76.041,76.041,0,0,0-2.518,8.092c.654,3.327,1.147,6.4,1.42,9.074a14.568,14.568,0,0,1,2.134,4.859c1.374,5.9,3.468,12.7,5.769,19.652a47.544,47.544,0,0,0,5.111-19,6.082,6.082,0,0,1-3.465-2.17l-3.36-4.353a4.527,4.527,0,0,1-.931-3.762,4.325,4.325,0,0,1,2.292-2.915l5.223-2.745a6.007,6.007,0,0,1,5.441.114c2.617-2.646,6.232-4.317,11.02-4.991,4.513-.636,7.749-6.591,7.63-11.491-.064-2.628-1.132-7.123-7.566-7.711" transform="translate(552.897 1401.096)" fill="#c69456"/>
    <path id="패스_88423" data-name="패스 88423" d="M1131.562,110.465c-.3.766-.585,1.511-.859,2.251a14.69,14.69,0,0,0,2.693-1.3,25.515,25.515,0,0,0,.5-3.824c-.471.2-.944.4-1.455.588-.3.781-.591,1.549-.875,2.282" transform="translate(545.604 1433.507)" fill="#c69456"/>
    <path id="패스_88424" data-name="패스 88424" d="M1131.9,110.2c-3.584,0-6.617-.7-7.584-2.244-.091-.148-.127-.3-.206-.445a40.814,40.814,0,0,0,.033,4.327v.031a3.157,3.157,0,0,0,.463,1.435,3.9,3.9,0,0,0,2.106,1.643,4.365,4.365,0,0,0,1.313.237,40.464,40.464,0,0,0,9.751-1.323c.206-.613.42-1.224.646-1.832.3-.8.6-1.59.913-2.394l.058-.153c.026-.071.053-.145.082-.214q-1.2.29-2.447.491a32.915,32.915,0,0,1-5.129.44" transform="translate(535.356 1433.373)" fill="#c69456"/>
    <path id="패스_88425" data-name="패스 88425" d="M1209.552,128.244c-.064-.5-.14-1.02-.216-1.544-.026-.178-.048-.346-.074-.524-.135-.878-.293-1.793-.458-2.727q-.267-1.481-.582-3.048c-.371-1.847-.789-3.765-1.247-5.742a8.268,8.268,0,0,1-4.963,3.149H1202a8.251,8.251,0,0,1-1.328.12c-.028,0-.059.008-.087.008a7.107,7.107,0,0,1-1.282-.12,9.542,9.542,0,0,1-5.284-3.427,3.159,3.159,0,0,1-.615-3,10.947,10.947,0,0,1,3.915-5.548,4.136,4.136,0,0,1,.768-.438c.161-.061.321-.1.483-.148a6.2,6.2,0,0,1,1.305-.252,9.687,9.687,0,0,1,5.007,1.2q-.42-1.606-.855-3.216a7.278,7.278,0,0,1-3.2.89,4.144,4.144,0,0,1-1.185-.178,3.5,3.5,0,0,1-1.4-.8c-.041-.038-.077-.086-.115-.125a6.481,6.481,0,0,1-1.46-6.472c.051-.132.119-.28.193-.427a4.89,4.89,0,0,1,1.086-1.425,6.357,6.357,0,0,1,3.253-1.511c-1.241-4.243-2.457-8.237-3.533-11.687-.662.351-1.331.684-2,1.018-.415.2-.824.41-1.241.608s-.829.392-1.246.583a89.578,89.578,0,0,1-13.7,4.922,96.683,96.683,0,0,1-11.962,2.422c.646,6.283,1.259,20.517-4.032,34.719-2.77,7.438-8.871,15.375-17.683,15.375h-.051c-5.752-.018-10.641-3.635-12.76-9.44-5.2-14.246-2.051-34.518-.666-41.715q-2.416-.469-4.77-1.035c-1.6,1.827-3.358,3.75-5.274,5.686a81.846,81.846,0,0,1-13.445,11.221,12.938,12.938,0,0,1-4.775,5.113l.908,3.511a4.044,4.044,0,1,1-7.83,2.027l-.949-3.668a12.946,12.946,0,0,1-3.951-.967c-4.159,1.015-5.894,6.357-5.711,11.626.265,7.525,4.246,15.052,11.359,15.052.081,0,.163,0,.246-.005,11.6-.282,19.9-5.5,23.628-9.98l2.508-15.894a1.33,1.33,0,1,1,2.628.415l-1.788,11.328.028-.033-.811,5a61.581,61.581,0,0,0-.247,18.385,98.434,98.434,0,0,1,.26,20.944,31.024,31.024,0,0,1-1.71,7.12c-1.366,4.121-2.271,6.846.929,10.283,4.933,5.294,20.634,7.55,27.365,5.111.267-5.083,1.328-31.443-4.589-40.321a1.33,1.33,0,0,1,2.213-1.475c6.813,10.219,5.18,39.65,5,42.621,1.313,6.563,8.68,7.057,16.775,6.986,1.354-.013,2.63-.043,3.872-.084a21.423,21.423,0,0,1-8.27-8.331c-6.378-11.669-1.122-26.51-.005-29.367,2.023-5.172,2.081-6.347,2.188-8.474a54.485,54.485,0,0,1,1.61-10.618c3.007-13.32,12.142-16.474,13.271-16.818.247-.1.486-.181.73-.28-2.472-10.209-7.252-23.508-12.289-25.984a1.331,1.331,0,0,1,1.173-2.389c.084.043.166.114.249.16,5.818,3.175,10.768,16.754,13.328,27.268.109.443.208.873.308,1.305s.206.89.3,1.318c.353,1.636.641,3.16.849,4.5a33.41,33.41,0,0,1,.42,3.969,12.3,12.3,0,0,1-.018,1.366,4.545,4.545,0,0,1-.285,1.432,1.987,1.987,0,0,1-.471.689c-2.447,2.351-4.442,5.848-2.709,8.621.712.878,7.039,1.819,13.951-.336.035-.013.071-.02.107-.033.3-.094.588-.158.888-.265.236-.084.481-.193.722-.287.145-.059.292-.114.44-.176.4-.165.8-.346,1.2-.539l.224-.114c.249-.125.5-.244.75-.382.168-.094.333-.186.5-.285.422-.249.832-.524,1.236-.812a12.017,12.017,0,0,0,5.375-10.209c0-.936-.058-1.984-.158-3.111-.063-.728-.142-1.486-.244-2.284" transform="translate(477.37 1392.84)" fill="#c69456"/>
    <path id="패스_88426" data-name="패스 88426" d="M1095.688,47.224c-4.77-8.273-6.983-15.564-5.663-19.438a4.578,4.578,0,0,1,2.992-3.025c4.536-1.453,12.906,5.2,17.528,9.323a72.27,72.27,0,0,1,11.669-6.495c-7.24-5.078-20.171-12.061-31.237-7a7.886,7.886,0,0,0-4.569,5.33c-1.872,6.734,2.473,17.082,6.452,24.6.89-1.094,1.844-2.2,2.829-3.3" transform="translate(476.526 1296.47)" fill="#c69456"/>
    <path id="패스_88427" data-name="패스 88427" d="M1090.593,101.807a15.621,15.621,0,0,1,2.333-1.119c-8.021-11.292-8.039-23.437-8.042-31.407v-.4a47.823,47.823,0,0,1,1.3-11.715c-.222-.659-.413-1.33-.575-2.01a17.486,17.486,0,0,1-3.492-1.707c-1.354,17.69.422,35.126,7.041,46.167.445.74.937,1.47,1.437,2.2" transform="translate(469.934 1349.904)" fill="#c69456"/>
    <path id="패스_88428" data-name="패스 88428" d="M1099.165,64.134a54.937,54.937,0,0,1,6.093-11.532,6.5,6.5,0,0,1-.827-.532,6.566,6.566,0,0,1-1.745-1.994,6.636,6.636,0,0,1-.545-1.226,6.522,6.522,0,0,1-.318-2,6.848,6.848,0,0,1,.076-.761,6.521,6.521,0,0,1,5.622-5.716,6.424,6.424,0,0,1,.865-.086,6.352,6.352,0,0,1,.824.12,6.449,6.449,0,0,1,4.513,2.745c.446-.384.918-.756,1.387-1.129a45.676,45.676,0,0,1,3.989-2.89,1.33,1.33,0,0,1,1.43,2.244,48.078,48.078,0,0,0-16.876,19.25,26.306,26.306,0,0,1,11.534-2.264c7.731.031,13.8,2.134,16.652,5.772a7.648,7.648,0,0,1,1,1.72c4.943-6.212,18.7-21.132,37.477-22.071a1.331,1.331,0,1,1,.135,2.658c-.8.038-1.575.163-2.359.257a6.588,6.588,0,1,1-10.407,2.834c-10.893,4.663-18.957,13.34-22.544,17.751,14.875,2.376,22.206,8.555,25.752,13.544a22.828,22.828,0,0,1,1.534,2.516c8.715.374,18.224,1.631,24.177,4.966a1.331,1.331,0,1,1-1.3,2.323c-5.212-2.923-13.633-4.126-21.651-4.546a21.1,21.1,0,0,1,.761,12.259c-.059.242-.14.463-.2.7,5.286,1.936,10.3,4.6,13.493,8.306a1.331,1.331,0,1,1-2.017,1.737c-2.849-3.307-7.438-5.744-12.349-7.535a18.568,18.568,0,0,1-2.2,3.854c11.1,9.425,17.337,22.231,16.858,36.6-.338,10.145-4.314,18.761-11.262,24.656-.624.527-1.293,1.01-1.962,1.493-.3.219-.578.468-.89.679-.409.272-.875.555-1.344.837-4.4,2.643-11.452,5.48-21.534,5.48-1.712,0-3.51-.084-5.4-.262-.5-.048-1.023-.12-1.539-.181s-1.026-.112-1.554-.188a81.4,81.4,0,0,1-16.879-4.459c-2.641-.987-5.062-2.04-7.327-3.139l.776,4.159a96.744,96.744,0,0,0,20.049,7.527c.484.125.964.252,1.45.371s.959.232,1.442.341c1.11.252,2.229.491,3.356.707.112.02.221.048.333.071.407.076.809.127,1.214.2a109.154,109.154,0,0,0,11.783,1.442,104.215,104.215,0,0,0,12.75.12c2.333-.127,4.638-.361,6.925-.646.44-.056.883-.109,1.32-.17a92.447,92.447,0,0,0,15.221-3.406,85.515,85.515,0,0,0,10.272-4c.417-.2.83-.4,1.244-.6s.834-.392,1.244-.6c.567-.285,1.125-.585,1.681-.883.4-.216.8-.44,1.191-.661s.8-.435,1.193-.664a77.606,77.606,0,0,0,8.39-5.6,70.013,70.013,0,0,0,26.538-42.555c-4.065-1.9-8.591-4.859-9.191-8.878-.87-5.843,7.9-9.649,10.992-10.8a115.6,115.6,0,0,0-2.262-20.929,29.182,29.182,0,0,1-9.67,4.943l-.315-1.292-.315-1.292c2.9-.707,6.279-2.623,9.684-5.274.382-.3.766-.618,1.15-.934.4-.333.8-.654,1.2-1,8.911-7.792,17.339-20.016,17.317-28.634-.015-5.391-3.271-8.9-9.68-10.42a67.036,67.036,0,0,0-30.819-.341c-.529.122-1.066.242-1.575.371-.552.142-1.081.287-1.608.438-10.262,2.936-16.131,7.482-16.235,7.566l-.832-1.038-.83-1.04a50.948,50.948,0,0,1,15.2-7.538,78.779,78.779,0,0,0-15.8-8.871,21.835,21.835,0,0,1-5.378,5.576,7.79,7.79,0,0,1-4.068.992,15.05,15.05,0,0,1-10.2-4.388,3.218,3.218,0,0,1-1.1-3.381c.536-1.717,2.767-2.885,5-3.658q-3.339-.694-6.828-1.145c-1.773,4.765-8.7,8.082-14.437,9.532a15.777,15.777,0,0,1-3.882.5,13.8,13.8,0,0,1-10.771-5.029c-1.063-1.351-.569-3.022.242-4.452-.165.028-.326.046-.491.071a67.5,67.5,0,0,0-11.9,3.1c-.491.176-.974.356-1.455.542s-.972.371-1.448.57a69.194,69.194,0,0,0-12.142,6.515c-.381.257-.753.519-1.127.778s-.748.511-1.109.773a79.941,79.941,0,0,0-11.351,10.069c-.323.346-.626.689-.939,1.035s-.628.684-.928,1.028c-1.01,1.15-1.957,2.3-2.859,3.437-.3.382-.608.761-.9,1.14s-.59.778-.877,1.165a95.415,95.415,0,0,0-9.267,15.192,42.013,42.013,0,0,1,8.82-2.343c1.859-.3,3.689-.468,5.472-.583m108.069,48.948c-.967,1.534-3.173,2.5-7.149,3.124a5.476,5.476,0,0,1-.87.074,2.719,2.719,0,0,1-2.493-1.226c-1.475-2.379,1.468-6.754,2.071-7.606,1.364-1.921,2.847-2.758,4.411-2.5,2.834.471,4.144,4.434,4.379,5.223a3.467,3.467,0,0,1-.348,2.915m.554-7.105c-1.046-1.755-.417-3.742.308-6.042.188-.6.387-1.226.57-1.893A7.248,7.248,0,0,1,1214,93.124c3-.847,6.294-.31,8.005,1.3,4.188,3.941,3.628,6.54,2.285,10.8-1.045,3.312-2.763,4.32-5.4,4.32a34.372,34.372,0,0,1-5.975-.842c-2.7-.524-4.33-1.386-5.124-2.722m19,15.574a5.612,5.612,0,0,1,.621,7.525l-4.009,5.151a5.521,5.521,0,0,1-3.87,2.127c-.183.018-.366.025-.547.025a5.518,5.518,0,0,1-3.658-1.379l-4.526-3.961a5.55,5.55,0,0,1-.628-7.751l4.248-5.141a5.575,5.575,0,0,1,8.082-.549Zm-21.927-68.144a100.427,100.427,0,0,1,16.368-6.06c.486-.13.969-.267,1.46-.387.466-.112.934-.2,1.4-.308,6.7-1.465,13.638-1.832,18.09,1.137a5.716,5.716,0,0,1,2.753,4.877c0,4.332-4.663,9.746-9.741,14.363-.366.333-.73.661-1.1.987s-.725.636-1.089.944a121.861,121.861,0,0,1-10.321,7.828,1.333,1.333,0,0,1-1.086.178,1.333,1.333,0,0,1-.848-.7c-3.693-7.525-11.167-19.7-15.5-20.349a1.331,1.331,0,0,1-.39-2.511m-66.635-21.588a4.135,4.135,0,0,1,3.875-.3c2.221.893,4.495,2.618,4.571,4.459a2.179,2.179,0,0,1-1.269,2.063l-.2.1c-2.015,1.018-4.2,1.966-5.978,1.966a3.411,3.411,0,0,1-1.844-.476,3,3,0,0,1-1.328-2.808c.056-2.981,1.213-4.368,2.178-5.006" transform="translate(474.848 1299.955)" fill="#c69456"/>
    <path id="패스_88429" data-name="패스 88429" d="M1097.771,122.1a10.253,10.253,0,0,0,2.905.979l.018.005a10.514,10.514,0,0,0,1.391.125,10.248,10.248,0,0,0,1.366-.033,7.353,7.353,0,0,0,2.694-.628,10.506,10.506,0,0,0,1.231-.552,10.672,10.672,0,0,0,1.193-.7,10.219,10.219,0,0,0,1.9-1.821,10.194,10.194,0,0,0,2.239-8.5l-3.294-17.67-.326-1.745-.326-1.75L1108,85.733l-.31-1.669-.321-1.725-.025-.125a11.68,11.68,0,0,0-11.432-9.535c-.173,0-.346.025-.519.033a11.792,11.792,0,0,0-1.626.188c-.254.048-.508.081-.76.145-.2.051-.382.15-.58.211a13.283,13.283,0,0,0-2.453,1.018,13.078,13.078,0,0,0-1.137.707,12.3,12.3,0,0,0-1.069.809,12.924,12.924,0,0,0-3.943,14.1l8.84,26.291a10.324,10.324,0,0,0,5.106,5.917m.6-37.584-1,.929-1.814,1.692,0,0a.145.145,0,0,0-.007.114.14.14,0,0,0,.109.1l5.353,1.3a2.808,2.808,0,0,1,1.257,4.78l-4.485,4.2a.133.133,0,0,0-.043.155.135.135,0,0,0,.13.1l4.681.481a2.808,2.808,0,0,1,1.628,4.844L1100.14,107a.136.136,0,0,0-.041.155.135.135,0,0,0,.13.1c1.471.117,3.2.249,4.681.361a2.809,2.809,0,0,1,1.694,4.861l-.26.259-1.081,1.094-1.089,1.1-1.905,1.923a1.477,1.477,0,0,1-.944.394,1.336,1.336,0,0,1-.872-.341.46.46,0,0,1-.064-.043,1.322,1.322,0,0,1-.308-1.4,1.352,1.352,0,0,1,.295-.486l.755-.761,1.692-1.707,1.089-1.1.842-.85.008-.028c.053-.051.1-.092.073-.173a.127.127,0,0,0-.127-.094c-.145-.013-.308-.025-.458-.036l-3.012-.234-1.221-.1a2.807,2.807,0,0,1-1.694-4.849l4.042-3.783a.127.127,0,0,0,.038-.153.132.132,0,0,0-.124-.1l-4.681-.478a2.81,2.81,0,0,1-1.633-4.846l4.488-4.2a.139.139,0,0,0,.043-.145.145.145,0,0,0-.109-.107l-5.358-1.3a2.807,2.807,0,0,1-1.32-4.714l1.605-1.5,1-.934,1-.931,1.177-1.1a1.329,1.329,0,1,1,1.814,1.944l-.913.852Z" transform="translate(472.16 1379.601)" fill="#c69456"/>
    <path id="패스_88430" data-name="패스 88430" d="M1101.428,104.794a2.773,2.773,0,0,0-2.437-1.872c-1.486-.112-3.21-.247-4.681-.364a.131.131,0,0,1-.127-.1.135.135,0,0,1,.038-.158l4.042-3.78a2.81,2.81,0,0,0-1.631-4.846l-4.681-.478a.137.137,0,0,1-.127-.1.125.125,0,0,1,.041-.153l4.485-4.2a2.81,2.81,0,0,0-1.254-4.783l-5.355-1.3a.14.14,0,0,1-.109-.1.156.156,0,0,1,.007-.114l0,0,1.816-1.694.995-.926,1.022-.954.913-.852a1.33,1.33,0,1,0-1.814-1.946l-1.177,1.1-1,.931-1,.931-1.6,1.5a2.809,2.809,0,0,0,1.32,4.716l5.358,1.3a.133.133,0,0,1,.109.107.136.136,0,0,1-.043.145l-4.488,4.2a2.808,2.808,0,0,0,1.633,4.844l4.681.481a.129.129,0,0,1,.125.1.131.131,0,0,1-.038.155l-4.042,3.78a2.809,2.809,0,0,0,1.694,4.851l1.221.1c1.01.079,2.03.158,3.012.232.15.013.313.025.458.036a.13.13,0,0,1,.127.1c.028.079-.018.122-.071.173l-.01.025-.842.852-1.089,1.1-1.692,1.707-.753.761a1.353,1.353,0,0,0,.01,1.88c.018.02.043.025.064.043a1.326,1.326,0,0,0,.872.343,1.351,1.351,0,0,0,.557-.135,1.38,1.38,0,0,0,.386-.259l1.905-1.926,1.089-1.1,1.081-1.091.26-.259a2.778,2.778,0,0,0,.743-2.989" transform="translate(478.08 1384.293)" fill="#b40011"/>
    <path id="패스_88431" data-name="패스 88431" d="M1173.44,137.541h0q-.9-2.606-1.8-5.24l-.55-1.618c-.178-.522-.353-1.04-.529-1.562-2.406-7.164-4.632-14.238-6.179-20.5a15.015,15.015,0,0,1-7.5,10.247,26.658,26.658,0,0,1-.186,3.271,14.92,14.92,0,0,0,2.669-2.76,1.331,1.331,0,0,1,2.236,1.445,20.344,20.344,0,0,1-7.123,6.019,1.34,1.34,0,0,1-.608.155,24.568,24.568,0,0,1-3.948,1.537c-.481.148-.975.272-1.471.4s-.977.254-1.475.364a42.662,42.662,0,0,1-8.566,1.046c-.137,0-.267,0-.4-.005a6.673,6.673,0,0,1-5.922-3.686c-.017-.036-.028-.076-.043-.114-.013-.023-.018-.048-.028-.071a5.661,5.661,0,0,1-.491-1.944c-.827-13.824,4.44-16.322,5.042-16.558.3-.127.623-.219.934-.328a41,41,0,0,0-1.145-8.23c-.114.051-.229.084-.346.135l-.181.061c-.349.1-8.708,2.592-11.478,14.867a51.928,51.928,0,0,0-1.549,10.163c-.115,2.33-.186,3.734-2.369,9.313-2.877,7.357-4.642,18.876-.135,27.118,2.371,4.342,6.3,7.441,11.662,9.293a31.729,31.729,0,0,0,3.452.974c.267.061.514.137.789.191,1.1.221,2.172.341,3.251.488,12.478,1.7,23.224-1.463,29.789-8.985,5.922-6.787,7.451-16.078,4.192-25.488m-8.122,9.774a49.915,49.915,0,0,1-15.327,4.475c-.443.061-.868.127-1.326.181-.425.048-.885.076-1.325.117-.676.061-1.333.137-2.04.178q-.118.008-.237.008a3.94,3.94,0,0,1-3.925-3.572c-.028-.277-.035-.58-.058-.862-.035-.432-.061-.878-.089-1.32s-.073-.883-.091-1.343c0-.028-.005-.053-.005-.081a3.928,3.928,0,0,1,3.676-4.083c.626-.043,1.361-.109,2.141-.186.428-.043.86-.087,1.326-.142.422-.048.872-.115,1.32-.176a44.031,44.031,0,0,0,12.244-3.251,3.883,3.883,0,0,1,2.4-.277,3.945,3.945,0,0,1,1.124.382,3.806,3.806,0,0,1,.367.254,3.87,3.87,0,0,1,.977.931,3.928,3.928,0,0,1,.687,1.717c.163,1.137.275,2.264.33,3.348a3.916,3.916,0,0,1-2.164,3.7" transform="translate(525.311 1420.87)" fill="#4c4a4a"/>
    <path id="패스_88432" data-name="패스 88432" d="M1148.642,116.023a1.241,1.241,0,0,0-.557-.682,1.274,1.274,0,0,0-.562-.145l-.038-.008a1.244,1.244,0,0,0-.529.117,34.091,34.091,0,0,1-4.965,1.824,58.313,58.313,0,0,1-8.24,1.679c-.448.059-.9.122-1.32.17-.461.053-.9.1-1.326.142-.771.074-1.5.14-2.121.183h0a1.3,1.3,0,0,0-1.2,1.325c0,.059.01.112.01.17.02.458.063.885.091,1.333s.053.9.092,1.328c.018.2.023.422.041.618a1.306,1.306,0,0,0,1.358,1.17c.72-.043,1.386-.12,2.071-.186.438-.041.9-.069,1.326-.12.458-.053.88-.125,1.323-.188a47.95,47.95,0,0,0,14.264-4.182,1.254,1.254,0,0,0,.7-1.183c-.053-1.007-.158-2.053-.308-3.111a1.173,1.173,0,0,0-.1-.257" transform="translate(541.086 1445.232)" fill="#4c4a4a"/>
    <path id="패스_88433" data-name="패스 88433" d="M1149.045,68.289l.01.005c.018-.1.025-.214.044-.321.364-2.157.661-4.358.867-6.6l0-.041c.211-2.323.336-4.686.377-7.077l0-.076h0c-3.434,1.432-8.83,4.388-8.362,7.543.321,2.16,2.867,4.513,7.06,6.571" transform="translate(562.981 1351.031)" fill="#814500"/>
    <path id="패스_88434" data-name="패스 88434" d="M1145.87,59.327c1.244-3.938,1.468-5.2-1.572-8.059a5.023,5.023,0,0,0-3.29-.969,8.2,8.2,0,0,0-2.17.293,4.74,4.74,0,0,0-3.487,3.06c-.191.7-.4,1.364-.6,1.989-.534,1.692-.995,3.152-.56,3.882.252.425,1.038,1.023,3.343,1.473,7.087,1.369,7.469,1.071,8.334-1.669" transform="translate(550.727 1345.047)" fill="#814500"/>
    <path id="패스_88435" data-name="패스 88435" d="M1144.422,73.306l4.007-5.151a2.931,2.931,0,0,0-.323-3.935l-4.287-3.953a2.893,2.893,0,0,0-1.972-.773c-.066,0-.135,0-.2.008a2.906,2.906,0,0,0-2.053,1.053l-4.248,5.141a2.906,2.906,0,0,0,.328,4.055l4.528,3.961a2.919,2.919,0,0,0,4.223-.4" transform="translate(551.729 1359.242)" fill="#814500"/>
    <path id="패스_88436" data-name="패스 88436" d="M1130.434,61.1c3.963-.626,5.029-1.468,5.312-1.916a.824.824,0,0,0,.048-.74c-.514-1.727-1.526-3.231-2.261-3.353-.456-.081-1.125.455-1.806,1.417-1.43,2.017-2.119,4.037-1.994,4.612a2.038,2.038,0,0,0,.7-.02" transform="translate(544.084 1352.433)" fill="#814500"/>
    <path id="패스_88437" data-name="패스 88437" d="M1150.244,86.59l-.008-.01c-.142,0-.269.015-.415.02-.46.013-.916.033-1.356.064-.221.015-.44.038-.659.059-.425.038-.845.081-1.251.14-.232.033-.458.074-.687.112-.364.061-.725.125-1.076.2-.272.061-.536.135-.8.2-.29.076-.58.148-.857.234-.056.018-.117.031-.175.048l-.005.018c-.115.384-.229.745-.336,1.091-.366,1.155-.707,2.244-.455,2.671.107.176.537.616,2.312.962,5.284,1.023,5.36.786,5.938-1.04.768-2.437.982-3.361-.168-4.772" transform="translate(563.163 1401.062)" fill="#814500"/>
    <path id="패스_88438" data-name="패스 88438" d="M1145.246,97.253,1140.021,100a1.691,1.691,0,0,0-.928,1.127,1.916,1.916,0,0,0,.438,1.57l3.36,4.353a3.377,3.377,0,0,0,1.536,1.079c.053-.867.163-1.666.272-2.468.03-.219.041-.463.077-.677a24.168,24.168,0,0,1,.748-3.241c.107-.351.249-.667.371-1a18.931,18.931,0,0,1,.758-1.819c.193-.392.41-.761.626-1.124.135-.226.242-.478.386-.692a3.267,3.267,0,0,0-2.419.15" transform="translate(558.506 1417.061)" fill="#814500"/>
    <path id="패스_88439" data-name="패스 88439" d="M1142.713,94.21a.815.815,0,0,0,.048-.74c-.437-1.473-1.3-2.959-2.068-3.287l-.005-.005c-.066.086-.135.2-.2.287q-.649.889-1.31,1.888c-.125.193-.252.379-.379.577-.537.834-1.079,1.712-1.638,2.676-.1.181-.208.366-.308.557l.018,0a2.475,2.475,0,0,0,.531-.036c3.966-.626,5.029-1.47,5.312-1.916" transform="translate(555.098 1406.617)" fill="#814500"/>
    <path id="패스_88440" data-name="패스 88440" d="M1120.261,25.072c-.043.125.128.4.425.689,3.808,3.734,8.982,4.279,11.013,3.032a17.385,17.385,0,0,0,4.088-4.152c-1.957-.58-5.25-1.565-8.395-2.5-3.177.593-6.82,1.933-7.131,2.933" transform="translate(529.474 1301.57)" fill="#814500"/>
    <path id="패스_88441" data-name="패스 88441" d="M1109.731,21.579c-1.88,2.228-1.893,3.188-1.783,3.325a11.426,11.426,0,0,0,11.911,3.6c5.864-1.481,10.669-4.36,12.279-7.207a100,100,0,0,0-22.407.285" transform="translate(510.415 1299.499)" fill="#814500"/>
    <path id="패스_88442" data-name="패스 88442" d="M1108.436,26.251a2,2,0,0,0-.717-.15,1.236,1.236,0,0,0-.7.2c-.6.4-.959,1.432-.984,2.839a.922.922,0,0,0,.076.5c.031.025.786.6,5.07-1.539a6.734,6.734,0,0,0-2.747-1.855" transform="translate(507.523 1307.687)" fill="#814500"/>
    <path id="패스_88443" data-name="패스 88443" d="M1133.675,86.856h0a3.215,3.215,0,0,0-2.786,1.743,3.879,3.879,0,0,0,.9,3.706c.69.641,2.211.031,3.259-.588l0,0-.168-.593-1.165-4.131Z" transform="translate(545.63 1401.488)" fill="#814500"/>
    <path id="패스_88444" data-name="패스 88444" d="M1133.974,91.628c-.018,0-.035.01-.053.01a3.638,3.638,0,0,0-1.282.226l-.025.015a4.626,4.626,0,0,0-1.181,1.015,7.958,7.958,0,0,0-1.857,3.081c-.084.356-.051.56-.01.6a8.782,8.782,0,0,0,2.865,2.323,4.314,4.314,0,0,0,1.409.331,5.327,5.327,0,0,0,1.3-.059l.031-.01a5.691,5.691,0,0,0,3.548-2.452,4.114,4.114,0,0,0,.685-2.8c-1.117-.875-3.383-2.282-5.429-2.282" transform="translate(543.784 1408.855)" fill="#814500"/>
    <path id="패스_88445" data-name="패스 88445" d="M1263.065,188.83c-2.02-.186-3.834-.275-5.546-.275-11.544,0-18.8,4.108-25.785,14.938-1.964-7.4-4.169-14.872-6.153-21.308,2.389-1.486,4.694-3.083,6.886-4.77,16.208-12.491,26.175-29.265,29.624-49.858l.046-.287.023-.14c.1-.631.2-1.262.288-1.888l.066-.478c.089-.651.17-1.305.247-1.954l.013-.107.023-.211c.252-2.256.43-4.582.527-6.912l.008-.2,0-.081c.028-.667.046-1.336.061-2v-.071l.005-.206a118.053,118.053,0,0,0-2.2-24.4,71.3,71.3,0,0,0,13.157-15.653c3.406-5.589,7.105-13.844,5.4-21.445-1.028-4.577-4.353-10.532-14.363-12.913a78.348,78.348,0,0,0-18.078-2.17,70.733,70.733,0,0,0-16.024,1.821,85.712,85.712,0,0,0-18.265-10.064c-.137-.064-.278-.12-.42-.17a96.123,96.123,0,0,0-24.175-6.075c-1.012-.122-2.05-.229-3.088-.321l-.112-.01-.053-.005c-2.961-.257-5.988-.387-9-.387-1.033,0-2.081.015-3.119.046l-.254.005-.88.028q-1.145.046-2.3.12c-.494.028-.995.064-1.493.1-.72.053-1.44.109-2.165.178-.448.043-.9.092-1.354.142l-.334.038c-2.249.247-4.129.5-5.919.794a74.885,74.885,0,0,0-12.727,3.254c-6.113-4.236-16.014-9.713-26.329-9.713a26.573,26.573,0,0,0-11.153,2.371,14.541,14.541,0,0,0-7.983,8.84c-2.287,6.927-.242,16.67,6.082,28.988a99.819,99.819,0,0,0-9.982,17.128,24.962,24.962,0,0,0-8.563,8.687c-.463.8-.9,1.633-1.33,2.544-.02.043-.038.086-.059.13l-.5,1.132a73.426,73.426,0,0,0-10.918,1.905,1.331,1.331,0,0,0,.326,2.62,1.21,1.21,0,0,0,.328-.041,69.422,69.422,0,0,1,9.265-1.682,24.511,24.511,0,0,0-1.086,9.8,79.828,79.828,0,0,0-9.954,4.185,1.331,1.331,0,0,0,1.185,2.384,76.269,76.269,0,0,1,9.176-3.885l.013.061a20.687,20.687,0,0,0,4.647,9.056c-1,13.157-.944,34.908,7.866,49.828a19.845,19.845,0,0,0-3.567,18.914l8.843,26.291a17.054,17.054,0,0,0,2.48,4.752c-2.821,3.694-4.223,9.123-3.653,15.312,1.071,11.677,8.428,19.832,17.889,19.832.14,0,.277,0,.417-.005a42.706,42.706,0,0,0,18.578-4.648c.076,2.778.328,5.3.588,7.879a91.49,91.49,0,0,1,.252,19.685,24.9,24.9,0,0,1-1.4,5.62c-1.483,4.47-3.513,10.59,2.374,16.909,5.266,5.653,16.446,8.184,25.19,8.184a35.955,35.955,0,0,0,5.139-.338c4.017,6.222,12.46,7.2,20.575,7.2.257,0,.516,0,.781,0,3.157-.028,6.073-.132,8.685-.313,1.229.371,2.5.689,3.793.946a55.681,55.681,0,0,0,10.888,1.119c12.885,0,23.941-5.149,30.334-14.126,5.932-8.331,7.245-19.148,3.6-29.672-.733-2.114-1.363-3.951-1.936-5.635a58.447,58.447,0,0,0,6.428-24.149c.26-7.209,2.04-11.61,10.374-12.783,8.224-1.157,13.544-10.366,13.353-18.24s-5.536-13.434-13.612-14.172m-25.088,102.642c-6.563,7.522-17.312,10.682-29.789,8.985-1.079-.148-2.147-.267-3.251-.488-.272-.056-.519-.13-.786-.191a31.028,31.028,0,0,1-3.452-.977c-5.36-1.849-9.29-4.948-11.664-9.29-4.505-8.242-2.743-19.761.137-27.118,2.182-5.579,2.252-6.983,2.368-9.316a52.139,52.139,0,0,1,1.547-10.163c2.773-12.272,11.132-14.765,11.481-14.864l.178-.061c.117-.051.232-.084.349-.135a41.214,41.214,0,0,1,1.145,8.23c-.313.109-.631.2-.934.326-.6.239-5.869,2.737-5.044,16.561a5.65,5.65,0,0,0,.494,1.944c.01.023.015.048.025.071.018.038.028.079.046.115a6.672,6.672,0,0,0,5.922,3.686c.127,0,.26.005.394.005a42.618,42.618,0,0,0,8.566-1.046c.5-.109.987-.237,1.478-.364s.99-.254,1.471-.4a24.672,24.672,0,0,0,3.948-1.537,1.322,1.322,0,0,0,.605-.155,20.344,20.344,0,0,0,7.125-6.019,1.331,1.331,0,0,0-2.236-1.445,14.886,14.886,0,0,1-2.671,2.76,26.1,26.1,0,0,0,.188-3.271,15.014,15.014,0,0,0,7.5-10.247c1.544,6.258,3.77,13.33,6.179,20.5q.264.778.529,1.562l.55,1.618q.9,2.629,1.8,5.24c3.256,9.41,1.73,18.7-4.195,25.488m-68.65-41.873a1.33,1.33,0,0,0-2.213,1.475c5.92,8.876,4.856,35.238,4.592,40.319-6.731,2.44-22.435.186-27.365-5.111-3.2-3.434-2.3-6.159-.931-10.283a30.837,30.837,0,0,0,1.709-7.118,98.408,98.408,0,0,0-.26-20.944,61.776,61.776,0,0,1,.247-18.387l0-.005,0-.023.807-4.968-.028.033,1.791-11.326a1.33,1.33,0,0,0-2.628-.417l-2.511,15.894c-3.724,4.485-12.03,9.7-23.625,9.982-.084,0-.168,0-.249,0-7.11,0-11.094-7.527-11.356-15.052-.186-5.268,1.552-10.611,5.711-11.626a12.856,12.856,0,0,0,3.948.967l.949,3.671a4.056,4.056,0,0,0,3.918,3.03,3.943,3.943,0,0,0,1.01-.13h0a4.05,4.05,0,0,0,2.9-4.928l-.908-3.511a12.947,12.947,0,0,0,4.772-5.113,81.862,81.862,0,0,0,13.447-11.224c1.913-1.936,3.671-3.859,5.271-5.683,1.572.374,3.16.723,4.773,1.033-1.387,7.2-4.533,27.472.666,41.718,2.119,5.8,7.009,9.42,12.761,9.441h.048c8.815,0,14.915-7.937,17.685-15.375,5.289-14.2,4.676-28.436,4.032-34.722a96.205,96.205,0,0,0,11.962-2.419,89.4,89.4,0,0,0,13.7-4.925c.417-.188.832-.384,1.244-.58s.829-.4,1.242-.611c.672-.331,1.343-.667,2-1.015,1.076,3.45,2.295,7.441,3.534,11.687a6.359,6.359,0,0,0-3.254,1.509,4.9,4.9,0,0,0-1.086,1.427c-.074.148-.14.293-.191.425a6.474,6.474,0,0,0,1.46,6.472c.039.041.074.089.112.127a3.532,3.532,0,0,0,1.4.794,4.059,4.059,0,0,0,1.185.181,7.283,7.283,0,0,0,3.2-.893q.434,1.61.857,3.216a9.7,9.7,0,0,0-5.009-1.2,6.221,6.221,0,0,0-1.305.252,4.977,4.977,0,0,0-.481.148,3.8,3.8,0,0,0-.771.438,10.967,10.967,0,0,0-3.915,5.546,3.151,3.151,0,0,0,.618,3,9.544,9.544,0,0,0,5.281,3.427,7.126,7.126,0,0,0,1.285.122c.025,0,.058-.008.087-.008a8.514,8.514,0,0,0,1.325-.12l.018,0a8.267,8.267,0,0,0,4.96-3.147c.458,1.974.875,3.895,1.247,5.742.211,1.04.407,2.058.583,3.045.168.936.323,1.852.458,2.727.028.181.048.349.073.527.079.524.155,1.046.216,1.544.1.8.18,1.554.246,2.284.1,1.124.155,2.175.155,3.109a12.017,12.017,0,0,1-5.373,10.209c-.4.29-.817.565-1.239.814-.165.1-.333.191-.5.285-.249.135-.5.257-.75.382-.074.036-.147.076-.224.112-.4.2-.8.374-1.2.539-.147.061-.293.12-.44.176-.239.094-.484.206-.72.29-.3.1-.593.17-.89.265l-.107.031c-6.911,2.155-13.236,1.213-13.951.336-1.732-2.77.264-6.271,2.709-8.619a1.975,1.975,0,0,0,.473-.692,4.654,4.654,0,0,0,.285-1.432,12.372,12.372,0,0,0,.015-1.366,33.949,33.949,0,0,0-.417-3.969c-.209-1.341-.5-2.864-.849-4.5-.094-.43-.2-.875-.3-1.32-.1-.43-.2-.86-.305-1.3-2.559-10.514-7.512-24.1-13.33-27.271-.081-.046-.163-.117-.247-.158a1.33,1.33,0,1,0-1.175,2.386c5.037,2.478,9.819,15.777,12.289,25.986-.244.1-.483.173-.728.28-1.132.341-10.265,3.5-13.274,16.815a54.478,54.478,0,0,0-1.61,10.618c-.1,2.129-.163,3.3-2.186,8.474-1.119,2.857-6.372,17.7.005,29.367a21.414,21.414,0,0,0,8.27,8.334c-1.244.041-2.521.071-3.874.081-8.092.074-15.46-.422-16.772-6.986.183-2.969,1.816-32.4-5-42.618M1092.062,88.385c1.476-.013,2.831.015,4.032.076.47.023.905.051,1.328.081.481.033.928.071,1.346.109,2.256.216,3.577.476,3.614.486a1.331,1.331,0,1,0,.545-2.6c-.155-.033-1.414-.287-3.533-.506-.415-.046-.862-.086-1.34-.125-.422-.036-.875-.064-1.341-.092-1-.059-2.116-.1-3.317-.107.026-.048.046-.094.074-.142a17.6,17.6,0,0,1,4.638-5.159c.559-.427,1.122-.855,1.725-1.229.529-.328,1.1-.605,1.656-.9a39.927,39.927,0,0,1,14.734-3.824,8.129,8.129,0,0,0-.285,2.02c0,4.457,2.671,7.4,9.855,10.84a6.891,6.891,0,0,0,4.681.463l.331-.086c10.183-2.61,18.985-4.882,20.6-10.288.036-.051.056-.079.132-.188,14.961,2.066,22.094,7.957,25.452,12.681.2.285.371.585.557.875a170.687,170.687,0,0,0-17.255.537,1.331,1.331,0,0,0,.245,2.651,172.738,172.738,0,0,1,18.491-.468,18.49,18.49,0,0,1,1.058,11.766c-.036.155-.094.29-.132.443a97.879,97.879,0,0,0-20.1-3.92c-.033,0-.112-.008-.13-.01a1.327,1.327,0,0,0-1.335.918,1.264,1.264,0,0,0-.089.313,1.33,1.33,0,0,0,1.231,1.422c.066.005,1.809.142,4.5.511,1.3.181,2.828.417,4.5.722a87.078,87.078,0,0,1,10.527,2.557,15.809,15.809,0,0,1-1.765,3.06c-.268.361-.552.707-.847,1.043s-.611.649-.934.959a20.283,20.283,0,0,1-7.622,4.513c-.46.155-.931.29-1.4.422-.455.127-.916.252-1.381.354a33.216,33.216,0,0,1-9.237.707c-.463-.031-.923-.061-1.382-.1s-.926-.1-1.381-.163c-.1-.013-.209-.02-.31-.036-14.05-2.078-20.842-9.738-22.389-15.663l-1.03-3.951-1.493,3.8c-1.567,3.981-6.294,7.84-14.8,8.436-.438.031-.886.056-1.346.069-.44.01-.885.02-1.343.013a43.74,43.74,0,0,1-6.82-.656c-.453-.076-.9-.145-1.364-.237-.076-.015-.147-.023-.224-.038-.254-.051-.5-.132-.743-.193l-.316-.084c-.381-.107-.758-.221-1.127-.356a14.12,14.12,0,0,1-1.43-.6,14.743,14.743,0,0,1-2.646-1.633,14.534,14.534,0,0,1-1.246-1.1,14.263,14.263,0,0,1-1.163-1.29,13.956,13.956,0,0,1-1.8-2.941,14.381,14.381,0,0,1-.944-3.04c1.348-.282,2.547-.476,3.584-.593.476-.053.921-.094,1.331-.125.506-.033.969-.056,1.374-.061a12.937,12.937,0,0,1,2.419.137,1.33,1.33,0,0,0,.565-2.6,13.812,13.812,0,0,0-2.529-.209c-.41,0-.855,0-1.366.023-.415.02-.86.048-1.338.092a39.511,39.511,0,0,0-4.36.672,20.075,20.075,0,0,1,1.8-8.459m18.861-63.751c11.064-5.065,23.994,1.921,31.237,7a72.209,72.209,0,0,0-11.671,6.5C1125.866,34,1117.5,27.349,1112.963,28.8a4.577,4.577,0,0,0-2.994,3.025c-1.32,3.874.893,11.168,5.663,19.438-.984,1.1-1.936,2.2-2.826,3.3-3.979-7.515-8.324-17.863-6.454-24.6a7.894,7.894,0,0,1,4.572-5.33m36.617,7.706a67.3,67.3,0,0,1,11.9-3.1c.165-.028.326-.046.491-.071-.814,1.427-1.3,3.1-.244,4.452a13.809,13.809,0,0,0,10.774,5.029,15.9,15.9,0,0,0,3.882-.5c5.736-1.45,12.663-4.77,14.437-9.535q3.484.45,6.828,1.145c-2.231.773-4.462,1.941-5,3.658a3.216,3.216,0,0,0,1.1,3.383,15.065,15.065,0,0,0,10.2,4.388,7.854,7.854,0,0,0,4.07-.99,21.9,21.9,0,0,0,5.375-5.581,78.642,78.642,0,0,1,15.8,8.873,51.019,51.019,0,0,0-15.2,7.538l.832,1.04.829,1.038c.1-.084,5.976-4.63,16.238-7.566.527-.15,1.056-.3,1.606-.44.511-.13,1.046-.249,1.577-.371a67.029,67.029,0,0,1,30.817.343c6.411,1.521,9.667,5.027,9.682,10.422.021,8.616-8.407,20.837-17.317,28.629-.4.351-.8.674-1.2,1-.384.318-.765.636-1.15.936-3.406,2.648-6.78,4.566-9.682,5.271l.316,1.295.313,1.29a29.059,29.059,0,0,0,9.672-4.94,115.84,115.84,0,0,1,2.262,20.929c-3.091,1.147-11.862,4.956-10.992,10.8.6,4.017,5.124,6.983,9.191,8.881a70.026,70.026,0,0,1-26.541,42.552,77.649,77.649,0,0,1-8.39,5.6c-.392.226-.794.44-1.191.661s-.791.448-1.191.661c-.557.3-1.117.6-1.682.885-.41.206-.829.4-1.244.6s-.827.4-1.244.6a85.687,85.687,0,0,1-10.272,4,92.736,92.736,0,0,1-15.22,3.4c-.44.061-.88.117-1.323.17-2.287.287-4.589.521-6.924.649a104.188,104.188,0,0,1-12.748-.122,109.636,109.636,0,0,1-11.784-1.44c-.407-.071-.809-.125-1.213-.2-.114-.02-.224-.048-.336-.071-1.127-.216-2.244-.455-3.353-.707-.483-.109-.964-.224-1.445-.341s-.967-.247-1.45-.369a96.934,96.934,0,0,1-20.048-7.53l-.776-4.159c2.264,1.1,4.686,2.155,7.327,3.142a81.623,81.623,0,0,0,16.879,4.457c.532.076,1.038.127,1.557.188s1.038.135,1.539.181q2.827.267,5.4.265c10.082,0,17.133-2.839,21.537-5.482.468-.28.934-.562,1.344-.837.313-.209.585-.458.89-.679.669-.483,1.338-.964,1.959-1.493,6.95-5.894,10.926-14.511,11.262-24.656.481-14.371-5.762-27.174-16.859-36.6a18.509,18.509,0,0,0,2.2-3.851c4.907,1.791,9.5,4.228,12.345,7.535a1.34,1.34,0,0,0,1.01.46,1.313,1.313,0,0,0,.868-.323,1.329,1.329,0,0,0,.14-1.875c-3.193-3.7-8.207-6.37-13.493-8.306.064-.237.147-.458.2-.7a21.1,21.1,0,0,0-.76-12.259c8.018.42,16.439,1.626,21.651,4.546a1.33,1.33,0,1,0,1.3-2.32c-5.95-3.338-15.462-4.594-24.175-4.966a23.5,23.5,0,0,0-1.534-2.518c-3.549-4.989-10.88-11.165-25.755-13.544,3.587-4.409,11.651-13.086,22.544-17.751a6.555,6.555,0,1,0,10.409-2.829c.784-.1,1.554-.221,2.356-.262a1.33,1.33,0,1,0-.132-2.656c-18.781.941-32.534,15.856-37.477,22.071a7.636,7.636,0,0,0-1-1.72c-2.854-3.638-8.921-5.744-16.653-5.772a26.346,26.346,0,0,0-11.534,2.262A48.077,48.077,0,0,1,1138.8,48.9a1.33,1.33,0,0,0-1.432-2.241,46.559,46.559,0,0,0-3.989,2.887c-.469.374-.939.745-1.384,1.13a6.461,6.461,0,0,0-4.516-2.745,6.234,6.234,0,0,0-.824-.12,6.073,6.073,0,0,0-.865.092,6.365,6.365,0,0,0-2.213.71,6.511,6.511,0,0,0-3.406,5,6.217,6.217,0,0,0-.079.761,6.512,6.512,0,0,0,.32,2,6.289,6.289,0,0,0,.544,1.224,6.614,6.614,0,0,0,1.745,2,7.272,7.272,0,0,0,.824.529,55.066,55.066,0,0,0-6.093,11.529c-1.784.117-3.61.287-5.472.583a41.777,41.777,0,0,0-8.817,2.345,95.222,95.222,0,0,1,9.265-15.195c.29-.387.577-.773.878-1.165s.6-.758.9-1.137c.906-1.142,1.85-2.29,2.862-3.439.3-.338.618-.684.928-1.028s.616-.689.939-1.033a79.844,79.844,0,0,1,11.351-10.071c.361-.262.738-.514,1.109-.771s.745-.524,1.127-.778a68.888,68.888,0,0,1,12.14-6.518c.479-.2.964-.382,1.45-.57s.964-.366,1.453-.542m23.646-4.314a98.649,98.649,0,0,1,14.785.338c-1.61,2.847-6.416,5.726-12.277,7.209a11.427,11.427,0,0,1-11.911-3.6c-.109-.14-.091-1.086,1.735-3.269,1.147-.142,2.287-.277,3.419-.382.643-.059,1.285-.14,1.926-.186.783-.061,1.547-.074,2.323-.114m37.495,5.759a17.476,17.476,0,0,1-4.088,4.149c-2.033,1.249-7.207.7-11.015-3.03-.3-.293-.463-.565-.425-.689.31-1,3.953-2.34,7.13-2.933,3.144.939,6.439,1.921,8.4,2.5m47.686,86.188c-.206,2.244-.5,4.444-.867,6.6-.018.1-.025.219-.044.321l-.01-.008c-4.193-2.058-6.736-4.411-7.06-6.568-.468-3.157,4.928-6.11,8.362-7.545h0l0,.076q-.062,3.595-.377,7.077l0,.043M1222.42,252.5a14.65,14.65,0,0,1-2.7,1.3c.277-.74.562-1.486.862-2.251.285-.735.58-1.5.873-2.282.513-.186.987-.387,1.458-.588a25.879,25.879,0,0,1-.5,3.824m-19.041,1.748a3.164,3.164,0,0,1-.463-1.435l0-.033a40.751,40.751,0,0,1-.033-4.327c.079.148.119.3.208.448.967,1.547,4,2.244,7.581,2.244a32.89,32.89,0,0,0,5.129-.44c.832-.135,1.646-.3,2.45-.494-.028.071-.056.145-.082.214l-.061.155c-.313.8-.618,1.6-.913,2.394-.224.608-.44,1.219-.644,1.829a40.464,40.464,0,0,1-9.751,1.323,4.36,4.36,0,0,1-1.313-.234,3.885,3.885,0,0,1-2.106-1.643m20.715-53.471c-1.048.621-2.567,1.229-3.259.588a3.875,3.875,0,0,1-.9-3.7,3.2,3.2,0,0,1,2.786-1.743l.038.132,1.165,4.131.168.6Zm1.829,12.361a5.674,5.674,0,0,1-3.546,2.452l-.033.01a5.335,5.335,0,0,1-1.3.061,4.334,4.334,0,0,1-1.409-.333,8.77,8.77,0,0,1-2.865-2.32c-.041-.046-.074-.247.01-.605a7.948,7.948,0,0,1,1.857-3.078,4.648,4.648,0,0,1,1.18-1.018l.025-.013a3.585,3.585,0,0,1,1.282-.229c.018,0,.036-.01.053-.01,2.048,0,4.312,1.409,5.429,2.284a4.108,4.108,0,0,1-.684,2.8M1119.335,74.264c.12-.346.255-.715.4-1.117.071-.092.155-.181.232-.272.142-.168.267-.343.432-.509a8.516,8.516,0,0,1,1.017-.86c2.613-1.9,6.836-2.959,11.878-2.959h.147c6.81.028,12.257,1.8,14.569,4.755a5.674,5.674,0,0,1,.552.867,3.784,3.784,0,0,1,.409,1.392,2.846,2.846,0,0,1-.051.908,3.557,3.557,0,0,1-.15.41c-1.476,3.824-10.181,6.067-18.629,8.235l-.331.086a4.226,4.226,0,0,1-2.872-.285c-6.869-3.292-8.291-5.558-8.334-8.311.079-.31.313-1.137.728-2.34m42.016,52.718-.069,0a3.7,3.7,0,0,1-2.7-1.236,9.963,9.963,0,0,1-2.02-3.785c.468.015.934.051,1.407.051a36.03,36.03,0,0,0,6.787-.651c-.5,3.526-1.206,5.625-3.406,5.625m-4.691.6a6.326,6.326,0,0,0,4.572,2.058c.046,0,.094,0,.14,0,4.742,0,5.645-4.716,6.162-8.952a23.415,23.415,0,0,0,10.112-5.734c10.5,8.919,16.408,20.975,15.958,34.485-.354,10.588-4.945,19.362-12.933,24.707-.239.16-.493.3-.735.45a31.9,31.9,0,0,1-2.783,1.559,33.21,33.21,0,0,1-3.928,1.656,43.981,43.981,0,0,1-17.423,2.061c-.521-.036-1.041-.064-1.57-.112-.507-.048-1.025-.117-1.536-.178a77.434,77.434,0,0,1-17.861-4.49,80.418,80.418,0,0,1-8.868-3.91l-.425-2.284a14.3,14.3,0,0,0-16.576-11.468c-8.052-10.725-8.064-22.422-8.064-30.677v-.4a50.821,50.821,0,0,1,.567-7.838,8.37,8.37,0,0,0,.654.789,6.329,6.329,0,0,0,4.572,2.061h.14c4.05,0,5.294-3.45,5.894-7.092,8.181-.45,13.455-3.656,16.161-7.444,2.9,6.113,10.29,12.814,23.521,14.773.43.064.87.094,1.305.148a13.761,13.761,0,0,0,2.946,5.836m-49.848-8.881h-.069a3.709,3.709,0,0,1-2.7-1.236,8.893,8.893,0,0,1-1.709-2.923c-.142-.364-.28-.728-.4-1.112.229.046.453.079.679.122a47.223,47.223,0,0,0,7.413.763c-.5,2.778-1.285,4.386-3.215,4.386m-11.346-7.782a17.584,17.584,0,0,0,3.493,1.707c.163.679.356,1.351.575,2.01a47.853,47.853,0,0,0-1.294,11.715v.4c0,7.97.02,20.115,8.041,31.407a15.764,15.764,0,0,0-2.336,1.119c-.5-.725-.992-1.453-1.435-2.2-6.619-11.041-8.4-28.477-7.044-46.167m7.881,52.044a13.065,13.065,0,0,1,1.069-.806,12.5,12.5,0,0,1,1.137-.71,13.3,13.3,0,0,1,2.455-1.018c.2-.061.376-.16.577-.211.252-.064.506-.1.761-.145a11.788,11.788,0,0,1,1.626-.188c.173-.008.346-.033.519-.033a11.685,11.685,0,0,1,11.435,9.535l.023.125.32,1.725.313,1.671.758,4.075.328,1.75.326,1.748,3.294,17.668a10.669,10.669,0,0,1-4.137,10.323,10.471,10.471,0,0,1-1.193.7,10.1,10.1,0,0,1-1.231.552,10.292,10.292,0,0,1-1.277.432,10.179,10.179,0,0,1-1.419.2,9.833,9.833,0,0,1-1.366.033,10.072,10.072,0,0,1-1.389-.125l-.017-.005a10.361,10.361,0,0,1-8.011-6.9l-8.84-26.291a12.925,12.925,0,0,1,3.94-14.1m19.828,52.359a1.383,1.383,0,1,1-2.679.692l-.786-3.032c.448-.059.9-.13,1.346-.234a12.865,12.865,0,0,0,1.335-.453Zm58.6,9.69c-2.46,6.6-7.739,13.643-15.194,13.643h-.038c-4.607-.015-8.543-2.964-10.27-7.693-4.925-13.493-1.839-33.435-.532-40.352a110.641,110.641,0,0,0,18.4,1.593,103.567,103.567,0,0,0,11.506-.639c.593,6.108,1.145,19.977-3.872,33.447m-.666-166.67a1.885,1.885,0,1,1-1.885-1.885,1.886,1.886,0,0,1,1.885,1.885m-59.213-4.676c0-.053-.03-.1-.03-.15a1.883,1.883,0,0,1,1.167-1.74,1.925,1.925,0,0,1,.72-.145,1.885,1.885,0,1,1,0,3.77,1.944,1.944,0,0,1-1.857-1.735m-4.373-4.447c-4.032-7.179-6.059-13.526-5.034-16.535a1.939,1.939,0,0,1,1.285-1.348,2.3,2.3,0,0,1,.7-.1c2.943,0,8.906,4.223,13.78,8.471a82.664,82.664,0,0,0-10.728,9.512m131.058,174.335a18.66,18.66,0,0,0-.758,1.819c-.122.336-.265.651-.371,1a24.166,24.166,0,0,0-.748,3.238c-.036.216-.047.46-.077.679-.109.8-.219,1.6-.272,2.465a3.341,3.341,0,0,1-1.536-1.079l-3.36-4.35a1.919,1.919,0,0,1-.437-1.57,1.691,1.691,0,0,1,.928-1.127l5.225-2.745a3.28,3.28,0,0,1,2.419-.153c-.145.216-.252.468-.386.692-.216.366-.433.735-.626,1.127m2.8-3.907a5.994,5.994,0,0,0-5.439-.114l-5.225,2.745a4.309,4.309,0,0,0-2.29,2.915,4.515,4.515,0,0,0,.928,3.762l3.361,4.353a6.1,6.1,0,0,0,3.467,2.17,47.572,47.572,0,0,1-5.111,19c-2.3-6.95-4.4-13.75-5.772-19.652a14.546,14.546,0,0,0-2.135-4.859c-.272-2.674-.766-5.749-1.419-9.074a75.741,75.741,0,0,1,2.521-8.092,3.429,3.429,0,0,0,1.206.216,5.467,5.467,0,0,0,.862-.071c3.976-.626,6.182-1.59,7.148-3.121a3.464,3.464,0,0,0,.349-2.918,8.661,8.661,0,0,0-2.956-4.612,20.832,20.832,0,0,1,5.457-4.569,4.577,4.577,0,0,0,.132,3.717c.651,1.094,1.951,1.8,4.093,2.211a26.05,26.05,0,0,0,4.592.644c2.106,0,3.539-.8,4.386-3.493.679-2.15,1.058-3.8.374-5.528.822.041,1.672.1,2.554.183,6.436.588,7.5,5.083,7.568,7.711.12,4.9-3.119,10.855-7.632,11.491-4.788.672-8.4,2.345-11.02,4.991M1239,204.655c.066-.092.132-.2.2-.29l.007.005c.764.331,1.631,1.816,2.066,3.289a.821.821,0,0,1-.046.74c-.283.445-1.349,1.287-5.312,1.913h0a2.5,2.5,0,0,1-.532.038h-.015q.149-.286.305-.557c.56-.962,1.1-1.839,1.641-2.676.127-.2.252-.384.379-.575.44-.666.875-1.3,1.31-1.888M1257,200c-.575,1.827-.651,2.063-5.938,1.04-1.776-.346-2.208-.786-2.312-.962-.255-.427.091-1.516.455-2.671.109-.346.221-.707.338-1.091l.005-.018c.056-.018.117-.031.175-.048.275-.086.565-.158.852-.234.267-.069.529-.142.8-.2.349-.076.712-.14,1.078-.2.226-.038.45-.079.685-.112.407-.059.827-.1,1.251-.142.219-.02.438-.041.662-.056.438-.031.893-.051,1.356-.064.14-.005.27-.018.412-.02l.005.01c1.152,1.412.939,2.335.171,4.772" transform="translate(456.58 1292.427)" fill="#1a1311"/>
    <path id="패스_88446" data-name="패스 88446" d="M1132.88,41.075c4.335.646,11.808,12.826,15.5,20.351a1.326,1.326,0,0,0,.847.7,1.246,1.246,0,0,0,.346.046,1.34,1.34,0,0,0,.741-.224,121.328,121.328,0,0,0,10.321-7.828c.361-.308.725-.626,1.088-.944s.733-.651,1.1-.984c5.078-4.617,9.743-10.031,9.74-14.366a5.711,5.711,0,0,0-2.752-4.874c-4.452-2.969-11.392-2.6-18.09-1.137-.468.1-.936.2-1.4.308-.493.12-.974.254-1.462.384a100.962,100.962,0,0,0-16.365,6.06,1.331,1.331,0,0,0,.387,2.511m14.75-5.472c1.058-.313,2.071-.58,3.068-.827.5-.125.977-.226,1.46-.336s.931-.2,1.384-.293c6.7-1.32,11.771-1,14.8,1.015a3.047,3.047,0,0,1,1.567,2.663c0,3.134-3.65,7.507-8.059,11.618-.354.328-.7.656-1.063.982s-.716.631-1.074.944a118.377,118.377,0,0,1-9.628,7.512c-2.119-4.124-8.176-15.223-13.8-19.115A101.863,101.863,0,0,1,1147.63,35.6" transform="translate(547.219 1314.794)" fill="#1a1311"/>
    <path id="패스_88447" data-name="패스 88447" d="M1102.681,71.292c.3,5.749,3.233,10.267,6.543,10.092s5.749-4.976,5.443-10.725-3.233-10.267-6.542-10.092-5.747,4.976-5.444,10.725" transform="translate(502.301 1360.892)" fill="#1a1311"/>
    <path id="패스_88448" data-name="패스 88448" d="M1091.794,57.627c-2.8.15-4.862,4.271-4.6,9.206s2.742,8.822,5.543,8.672,4.861-4.269,4.6-9.2-2.745-8.822-5.545-8.675" transform="translate(478.397 1356.355)" fill="#1a1311"/>
    <path id="패스_88449" data-name="패스 88449" d="M1144.627,66.066c2.636,0,4.353-1.007,5.4-4.32,1.344-4.256,1.9-6.858-2.285-10.8-1.712-1.61-5-2.147-8.005-1.3a7.248,7.248,0,0,0-5.332,4.917c-.183.667-.382,1.3-.57,1.893-.725,2.3-1.353,4.287-.308,6.042.793,1.333,2.422,2.2,5.124,2.722a34.371,34.371,0,0,0,5.978.842m-7.657-10.8a4.737,4.737,0,0,1,3.488-3.058,8.073,8.073,0,0,1,2.167-.293,5.017,5.017,0,0,1,3.292.969c3.037,2.859,2.816,4.121,1.572,8.059-.865,2.74-1.249,3.037-8.334,1.666-2.307-.445-3.091-1.046-3.343-1.47-.435-.73.026-2.19.56-3.879.2-.628.407-1.292.6-1.994" transform="translate(549.109 1343.43)" fill="#1a1311"/>
    <path id="패스_88450" data-name="패스 88450" d="M1143.082,58.46a5.523,5.523,0,0,0-3.923,2.012l-4.248,5.144a5.55,5.55,0,0,0,.625,7.751l4.529,3.961a5.508,5.508,0,0,0,3.658,1.379c.18,0,.364-.008.547-.025a5.521,5.521,0,0,0,3.869-2.127l4.006-5.151a5.609,5.609,0,0,0-.618-7.525l-4.287-3.953a5.55,5.55,0,0,0-4.159-1.465m6.965,11.31-4.007,5.151a2.922,2.922,0,0,1-4.225.4l-4.526-3.961a2.9,2.9,0,0,1-.328-4.055l4.248-5.144a2.888,2.888,0,0,1,2.053-1.051c.066-.005.135-.008.2-.008a2.9,2.9,0,0,1,1.974.773l4.287,3.953a2.936,2.936,0,0,1,.323,3.935" transform="translate(550.111 1357.627)" fill="#1a1311"/>
    <path id="패스_88451" data-name="패스 88451" d="M1131.582,65.414a5.45,5.45,0,0,0,.87-.071c3.976-.628,6.179-1.592,7.146-3.124a3.459,3.459,0,0,0,.348-2.915c-.234-.789-1.544-4.752-4.375-5.223-1.564-.254-3.048.583-4.411,2.5-.606.852-3.547,5.228-2.071,7.6a2.711,2.711,0,0,0,2.493,1.226m3.554-8.708c.735.122,1.748,1.626,2.261,3.353a.827.827,0,0,1-.048.74c-.283.448-1.349,1.29-5.312,1.916a2.11,2.11,0,0,1-.7.02c-.125-.575.565-2.595,1.994-4.612.682-.962,1.351-1.5,1.807-1.417" transform="translate(542.481 1350.817)" fill="#1a1311"/>
    <path id="패스_88452" data-name="패스 88452" d="M1106.317,33.515a3.427,3.427,0,0,0,1.847.476c1.778,0,3.961-.951,5.978-1.969l.2-.1a2.18,2.18,0,0,0,1.269-2.063c-.076-1.844-2.35-3.569-4.571-4.459v0a4.135,4.135,0,0,0-3.875.305c-.964.636-2.121,2.022-2.177,5.006a3.01,3.01,0,0,0,1.325,2.808m3.734-5.65a6.735,6.735,0,0,1,2.748,1.855c-4.284,2.142-5.04,1.565-5.07,1.539a.923.923,0,0,1-.076-.5c.026-1.407.384-2.44.985-2.839a1.236,1.236,0,0,1,.7-.2,2,2,0,0,1,.717.15" transform="translate(505.908 1306.073)" fill="#1a1311"/>
    <path id="패스_88453" data-name="패스 88453" d="M1152.3,115.791a3.845,3.845,0,0,0-.974-.929,2.883,2.883,0,0,0-1.493-.639,3.867,3.867,0,0,0-2.4.28,44.088,44.088,0,0,1-12.244,3.249c-.447.061-.9.127-1.32.176-.465.056-.9.1-1.326.142-.778.076-1.516.142-2.141.186a3.93,3.93,0,0,0-3.676,4.083c0,.028.005.053.005.084.018.458.064.888.092,1.341s.053.888.089,1.32c.023.282.031.585.059.862a3.94,3.94,0,0,0,3.925,3.572q.118,0,.237-.008c.71-.041,1.366-.117,2.043-.178.438-.041.9-.069,1.325-.117.455-.051.88-.12,1.323-.181a49.913,49.913,0,0,0,15.327-4.475,3.908,3.908,0,0,0,2.165-3.7c-.056-1.084-.168-2.211-.33-3.348a3.929,3.929,0,0,0-.687-1.717m-1.946,2.1c.15,1.058.255,2.1.308,3.111a1.256,1.256,0,0,1-.7,1.183,47.894,47.894,0,0,1-14.264,4.18c-.443.064-.865.137-1.323.191-.425.051-.888.076-1.326.12-.687.064-1.351.142-2.071.186a1.308,1.308,0,0,1-1.358-1.17c-.018-.2-.023-.417-.041-.618-.038-.432-.064-.883-.092-1.328s-.072-.878-.092-1.333c0-.059-.008-.114-.01-.173a1.3,1.3,0,0,1,1.2-1.325h0c.623-.043,1.351-.107,2.121-.183.425-.041.865-.087,1.325-.14.425-.051.872-.112,1.32-.173a57.61,57.61,0,0,0,8.24-1.679,34.071,34.071,0,0,0,4.966-1.821,1.21,1.21,0,0,1,.529-.12c.013,0,.026.01.038.01a1.271,1.271,0,0,1,.562.142,1.247,1.247,0,0,1,.557.684,1.192,1.192,0,0,1,.1.257" transform="translate(539.471 1443.625)" fill="#1a1311"/>
  </g>
</svg>
