<svg id="icon" xmlns="http://www.w3.org/2000/svg" width="75" height="75" viewBox="0 0 75 75">
  <g id="타원_2671" data-name="타원 2671" fill="none" stroke="#54b935" stroke-width="3" opacity="0.8">
    <circle cx="37.5" cy="37.5" r="37.5" stroke="none"/>
    <circle cx="37.5" cy="37.5" r="36" fill="none"/>
  </g>
  <circle id="타원_2673" data-name="타원 2673" cx="30.5" cy="30.5" r="30.5" transform="translate(7 7)" fill="#54b935"/>
  <g id="그룹_17059" data-name="그룹 17059" transform="translate(19 19)">
    <path id="패스_88161" data-name="패스 88161" d="M2750.863,1654.944h0l-.253-1.848h-1.5a16.638,16.638,0,0,1-3,13.518,16.366,16.366,0,0,1-13,6.914,17,17,0,0,1-17.64-18.6,16.315,16.315,0,0,1,6.119-11.519,16.728,16.728,0,0,1,15.855-3.175c0-.5,0-1.019.006-1.534a18.52,18.52,0,0,0-23.1,21.785,18.517,18.517,0,0,0,14.84,14.247c.475.077.967.141,1.441.2l.641.084h2.305l.626-.082c.479-.062.956-.123,1.414-.2a18.435,18.435,0,0,0,14.8-13.931c.141-.615.23-1.271.316-1.905.045-.332.089-.652.138-.971.014-.089.032-.177.051-.266l.005-.024v-2.269l-.022-.134C2750.892,1655.143,2750.876,1655.043,2750.863,1654.944Z" transform="translate(-2713.929 -1638.008)" fill="#fff" stroke="#fff" stroke-width="1"/>
    <path id="패스_88162" data-name="패스 88162" d="M2811.135,1641.259c-.081.09-.148.164-.218.234l-1.768,1.795q-2.208,2.242-4.414,4.486l0,0c-.01.634-.009,1.264-.008,1.925h9.988v-1.632l-5.742,0a1.071,1.071,0,0,1-.25-.031l-1.265-.244.7-1.107a1.165,1.165,0,0,1,.191-.259q3.18-3.232,6.364-6.459v-1.925h-9.968v1.635h7.839Z" transform="translate(-2777.713 -1638.031)" fill="#fff" stroke="#fff" stroke-width="1"/>
    <path id="패스_88163" data-name="패스 88163" d="M2765.893,1720.083h.013a4.143,4.143,0,1,0-.013,0Zm.012-6.684h.009a2.521,2.521,0,1,1-.009,0Z" transform="translate(-2747.419 -1689.655)" fill="#fff" stroke="#fff" stroke-width="1"/>
    <path id="패스_88164" data-name="패스 88164" d="M2738.783,1689.405l-1.05,1.249a7.21,7.21,0,0,0,4.883,1.584,7.461,7.461,0,0,0,4.006-1.582l-1.054-1.25A5.389,5.389,0,0,1,2738.783,1689.405Z" transform="translate(-2730.615 -1673.684)" fill="#fff" stroke="#fff" stroke-width="1"/>
    <path id="패스_88165" data-name="패스 88165" d="M2791.754,1689.358a5.693,5.693,0,0,1-6.794.029l-1.03,1.264a7.283,7.283,0,0,0,4.758,1.482,7.95,7.95,0,0,0,4.063-1.483Z" transform="translate(-2762.991 -1673.648)" fill="#fff" stroke="#fff" stroke-width="1"/>
  </g>
</svg>
