<svg xmlns="http://www.w3.org/2000/svg" width="75" height="37.5" viewBox="0 0 75 37.5">
  <path id="b8edcfbe2353980e10379e8523e30943" d="M24.5,25.75a3.75,3.75,0,0,0,3.75,3.75h22.5a3.75,3.75,0,1,0,0-7.5H28.25A3.75,3.75,0,0,0,24.5,25.75ZM32,37H20.75a11.25,11.25,0,1,1,0-22.5H32A3.75,3.75,0,1,0,32,7H20.75a18.75,18.75,0,0,0,0,37.5H32A3.75,3.75,0,1,0,32,37ZM58.25,7H47a3.75,3.75,0,1,0,0,7.5H58.25a11.25,11.25,0,0,1,0,22.5H47a3.75,3.75,0,0,0,0,7.5H58.25a18.75,18.75,0,0,0,0-37.5Z" transform="translate(77 44.5) rotate(180)" fill="#777cfc"/>
</svg>
